<?xml version="1.0" encoding="UTF-8"?> <svg xmlns="http://www.w3.org/2000/svg" width="175" height="244" viewBox="0 0 175 244" fill="none"> <g filter="url(#filter0_d)"> <path d="M6 8.31081C6 7.03458 7.03459 6 8.31081 6H157.743C159.02 6 160.054 7.03459 160.054 8.31081V227.068C160.054 228.344 159.02 229.379 157.743 229.379H8.31081C7.03458 229.379 6 228.344 6 227.068V8.31081Z" fill="white"></path> <path d="M21.5259 189.235C21.5259 187.959 22.5605 186.924 23.8367 186.924H142.458C143.735 186.924 144.769 187.959 144.769 189.235V203.87C144.769 205.147 143.735 206.181 142.458 206.181H23.8367C22.5605 206.181 21.5259 205.147 21.5259 203.87V189.235Z" fill="#232939"></path> <path d="M22.1772 215.129H143.495V215.514H22.1772V215.129Z" fill="#CBD2E2"></path> <path d="M23.3248 215.321C23.3248 215.853 22.8938 216.284 22.362 216.284C21.8302 216.284 21.3992 215.853 21.3992 215.321C21.3992 214.789 21.8302 214.358 22.362 214.358C22.8938 214.358 23.3248 214.789 23.3248 215.321Z" fill="#8392B8"></path> <path d="M60.306 215.322C60.306 215.853 59.875 216.284 59.3432 216.284C58.8114 216.284 58.3804 215.853 58.3804 215.322C58.3804 214.79 58.8114 214.359 59.3432 214.359C59.875 214.359 60.306 214.79 60.306 215.322Z" fill="#CBD2E2"></path> <path d="M106.524 215.322C106.524 215.853 106.093 216.284 105.561 216.284C105.029 216.284 104.598 215.853 104.598 215.322C104.598 214.79 105.029 214.359 105.561 214.359C106.093 214.359 106.524 214.79 106.524 215.322Z" fill="#CBD2E2"></path> <path d="M144.268 215.321C144.268 215.853 143.837 216.284 143.305 216.284C142.773 216.284 142.342 215.853 142.342 215.321C142.342 214.79 142.773 214.359 143.305 214.359C143.837 214.359 144.268 214.79 144.268 215.321Z" fill="#CBD2E2"></path> <path fill-rule="evenodd" clip-rule="evenodd" d="M150.698 16.1265C150.849 16.2769 150.849 16.5207 150.698 16.6711L146.847 20.5225C146.697 20.6729 146.453 20.6729 146.302 20.5225C146.152 20.3721 146.152 20.1282 146.302 19.9778L150.154 16.1265C150.304 15.9761 150.548 15.9761 150.698 16.1265Z" fill="#8392B8"></path> <path fill-rule="evenodd" clip-rule="evenodd" d="M146.302 16.1265C146.453 15.9761 146.697 15.9761 146.847 16.1265L150.698 19.9778C150.849 20.1282 150.849 20.3721 150.698 20.5225C150.548 20.6729 150.304 20.6729 150.154 20.5225L146.302 16.6711C146.152 16.5207 146.152 16.2769 146.302 16.1265Z" fill="#8392B8"></path> <path d="M79.0222 17.5051C79.0688 17.3173 79.1154 17.0983 79.1309 16.8635C79.1309 17.067 79.0921 17.286 79.0222 17.5051Z" fill="#00AB62"></path> <path d="M72.2785 18.6475C72.2164 18.4128 72.1931 18.1859 72.1931 17.9746C72.2164 18.3737 72.2785 18.6319 72.2785 18.6475Z" fill="#00B4FF"></path> <path d="M72.2785 18.6479C72.2708 18.6322 72.2086 18.374 72.1931 17.975V17.9671C72.1931 17.748 72.2164 17.5446 72.263 17.349C72.1853 18.0141 72.2708 18.6009 72.2785 18.6479Z" fill="#706766"></path> <path d="M73.4114 19.7606C73.1762 20.3456 72.9548 20.9986 72.8199 21.4121C72.7386 21.6613 72.5072 21.832 72.2451 21.832C72.0144 21.832 71.9439 21.6416 72.159 21.558C72.2179 21.535 72.2602 21.5212 72.2661 21.5193C72.2667 21.5191 72.2668 21.519 72.2675 21.5188C72.287 21.5114 72.7307 21.311 72.2823 18.6475C73.0356 19.0387 73.3026 19.1738 73.4114 19.7606Z" fill="#FFC766"></path> <path d="M72.2785 18.6475C72.2164 18.4128 72.1931 18.1859 72.1931 17.9746C72.2164 18.3737 72.2785 18.6319 72.2785 18.6475Z" fill="#FFA200"></path> <path d="M73.9132 18.835C73.4395 18.8116 72.8523 18.8496 72.2747 18.6473C72.298 18.6003 72.6779 17.7083 73.1827 16.6363C73.4234 16.5425 73.7417 16.4332 74.1139 16.5818C74.1139 16.5818 74.107 16.5904 74.1303 16.5982C74.2238 17.3206 74.1136 18.0963 73.9132 18.835Z" fill="#EA6766"></path> <path d="M73.9132 18.8352C73.789 19.3517 73.6181 19.8368 73.4551 20.2515C73.3386 19.6646 73.0279 19.0309 72.2747 18.6475C72.8959 18.757 73.4395 18.8118 73.9132 18.8352Z" fill="#EA6766"></path> <path d="M74.4353 18.8515C74.2581 20.0755 74.05 21.2788 73.8656 21.7714C73.8084 21.9241 73.6555 21.9891 73.4924 21.9891H73.4361C73.2138 21.9891 73.0309 21.9163 73.2096 21.7843C73.2749 21.736 73.4445 21.5857 73.4587 21.5058C73.4981 21.2836 73.56 20.7891 73.4568 20.252C73.6199 19.8373 73.7907 19.3522 73.915 18.8358C74.1014 18.8515 74.2722 18.8515 74.4353 18.8515Z" fill="#EA6766"></path> <path d="M74.8532 15.5474C74.7134 15.5161 74.5892 15.4926 74.4649 15.477C74.2785 15.4535 74.1077 15.4535 73.9524 15.4613C73.9524 15.4613 73.9524 15.4692 73.9601 15.4692C74.0844 15.7196 74.7833 16.1499 74.7833 16.1499C74.7833 16.6663 74.2547 16.6056 74.1149 16.59C74.1615 17.3568 74.0808 18.1608 73.9099 18.8572C74.0963 18.865 74.4345 18.8554 74.5976 18.8476C74.8306 17.2123 74.861 15.5474 74.8532 15.5474C74.861 15.5474 74.861 15.5474 74.8532 15.5474Z" fill="#EA6766"></path> <path d="M73.1911 16.6365C72.6864 17.7084 72.2981 18.6004 72.2748 18.6474C72.2748 18.5691 72.2437 17.0199 73.1911 16.6365Z" fill="#EA6766"></path> <path d="M73.9536 15.4481C73.8837 15.4559 73.8138 15.4638 73.7517 15.4716C73.7905 15.3855 73.8371 15.2995 73.8837 15.2056C73.907 15.2682 73.9536 15.4325 73.9536 15.4481Z" fill="#706766"></path> <path d="M73.8873 15.2056C73.8407 15.2916 73.8019 15.3777 73.7553 15.4716C73.6388 15.4872 73.5223 15.5185 73.4214 15.5577C73.6854 15.3308 73.8873 15.2056 73.8873 15.2056Z" fill="#706766"></path> <path d="M74.7853 16.1369C74.7853 16.6533 74.2557 16.6067 74.1159 16.5911C74.0926 16.1998 74.0709 15.8396 73.9622 15.4562C74.0786 15.7066 74.7853 16.1369 74.7853 16.1369Z" fill="#706766"></path> <path d="M73.4196 15.5581C73.008 15.9102 72.4566 16.5283 72.2625 17.3577C72.3479 16.6457 72.6274 15.8476 73.4196 15.5581Z" fill="#706766"></path> <path d="M73.7541 15.4717C73.56 15.8629 73.3736 16.262 73.195 16.6375C72.2398 17.0209 72.2786 18.5702 72.2786 18.6484C72.2709 18.6015 72.1854 18.0146 72.2553 17.3574C72.4495 16.5202 73.0086 15.9099 73.4124 15.5577C73.5212 15.5186 73.6376 15.4873 73.7541 15.4717Z" fill="#706766"></path> <path d="M74.1208 16.5908C74.0975 16.5908 74.0962 16.5908 74.0962 16.5908C73.7235 16.4969 73.4387 16.5355 73.198 16.6294C73.3766 16.2538 73.563 15.8548 73.7571 15.4635C73.8193 15.4557 73.8892 15.4479 73.959 15.4401C73.959 15.4401 73.959 15.4479 73.9668 15.4479C74.0755 15.8391 74.0975 16.2074 74.1208 16.5908Z" fill="#706766"></path> <path d="M78.2284 20.2632C78.2729 20.373 78.2833 20.4953 78.2472 20.6081L77.9526 21.5294C77.8934 21.7146 77.7212 21.8403 77.5267 21.8403H77.4815C77.1872 21.8403 77.0892 21.6209 77.3598 21.5053C77.3941 21.4907 77.4157 21.4825 77.4157 21.4825C77.4157 21.4825 77.9745 20.7224 76.8824 19.4069C76.6029 19.1331 76.4165 18.7966 76.2922 18.4367C76.4708 18.3271 76.6162 18.1759 76.7172 18.0428C76.7482 18.1054 76.8019 18.1642 76.8156 18.2315C76.8234 18.2394 76.8402 18.2487 76.8402 18.2644C77.0111 18.5304 77.2256 18.7758 77.513 19.0027C77.7304 19.1749 77.8978 19.3474 78.0298 19.5196C78.0677 19.825 78.1612 20.0973 78.2284 20.2632Z" fill="#CAEE66"></path> <path d="M76.7046 18.0531C76.7357 18.1157 76.7745 18.1705 76.8056 18.2331C76.7745 18.1705 76.7357 18.1157 76.7046 18.0531C76.5027 17.6932 76.3629 17.2629 76.3008 16.7465C76.3551 17.1612 76.4716 17.615 76.7046 18.0531Z" fill="#A6E200"></path> <path d="M79.0152 17.5132C78.9531 17.7244 78.891 17.8809 78.8677 17.9357C78.891 17.834 78.9298 17.7323 78.9686 17.6306C78.9919 17.5914 79.0075 17.5523 79.0152 17.5132Z" fill="#A6E200"></path> <path d="M79.1283 16.8561C79.105 15.9719 78.3362 15.2599 77.0005 15.2755C77.0316 15.2755 77.0626 15.2755 77.0937 15.2755C77.1403 15.2755 77.1869 15.2755 77.2412 15.2755C77.5907 15.2755 77.878 15.3225 78.111 15.3929H78.1188C78.9652 15.6511 79.1516 16.2849 79.1283 16.8561Z" fill="#A6E200"></path> <path d="M79.2104 20.1161C79.2693 20.2247 79.2942 20.3509 79.2678 20.4716L79.0133 21.6365C78.9684 21.8418 78.7866 21.9882 78.5765 21.9882H78.4223C78.1387 21.9882 78.0542 21.7913 78.3207 21.6944C78.3272 21.6921 78.3307 21.6909 78.3307 21.6909C78.3307 21.6909 79.3342 21.2581 78.0201 19.5591C78.0123 19.4965 78.0201 19.3983 78.0201 19.3357C78.3695 19.5313 78.7267 19.6565 79.0374 19.7426C79.0982 19.8977 79.1607 20.0245 79.2104 20.1161Z" fill="#66AA66"></path> <path d="M78.0857 19.6717C77.9069 19.314 77.7205 19.18 77.5108 19.0079C77.2234 18.781 77.006 18.5227 76.8274 18.2567C77.1536 18.7497 77.8621 18.9339 78.0233 19.3443C78.0233 19.4069 78.6669 20.3423 78.0857 19.6717Z" fill="#66AA66"></path> <path d="M79.0295 19.7428C78.7189 19.6567 78.3617 19.5315 78.0122 19.3359C78.0122 18.8586 78.1908 18.3109 78.8587 17.951C78.8587 17.951 78.8587 17.9431 78.8664 17.9353C78.6801 18.6395 78.8509 19.3046 79.0295 19.7428Z" fill="#66AA66"></path> <path d="M79.1247 16.8559C79.1169 17.0985 79.0704 17.3176 79.016 17.5054C79.016 17.5054 79.016 17.5054 79.016 17.5132C79.0005 17.5523 78.9849 17.5915 78.9694 17.6306C78.9228 17.7323 78.8918 17.834 78.8685 17.9357C78.8607 17.9514 78.8607 17.9514 78.8607 17.9514C78.1928 18.3113 78.0142 18.859 78.022 19.3441C77.5871 19.1016 77.1522 18.7573 76.826 18.2565C76.8183 18.2487 76.8105 18.2409 76.8105 18.2252C76.7717 18.1705 76.7406 18.1079 76.7096 18.0453C77.4395 17.0124 76.3296 15.3434 76.3296 15.3434C76.3296 15.3434 76.3523 15.3302 76.3912 15.3302C76.3989 15.3302 76.4145 15.3302 76.4222 15.3223C76.6241 15.2989 76.8105 15.2832 76.9891 15.2754H76.9969C78.3326 15.2598 79.1014 15.9718 79.1247 16.8559Z" fill="#66AA66"></path> <path d="M76.2982 18.4367C75.9099 18.6793 75.3197 18.8436 74.4421 18.8514C74.6829 17.2083 74.853 15.5488 74.853 15.5488C75.2336 15.5879 75.7313 15.5417 76.3292 15.3461C76.2982 15.4321 75.84 17.0988 76.2982 18.4367Z" fill="#EA6766"></path> <path d="M76.7183 18.0516C76.6173 18.1924 76.4703 18.3276 76.2917 18.4372C75.8335 17.0992 76.3012 15.4385 76.3245 15.3524C76.3167 15.4072 76.2002 15.9881 76.2934 16.7314V16.7393C76.3633 17.2635 76.5242 17.6916 76.7183 18.0516Z" fill="#EA6766"></path> <path d="M76.2594 16.7157C76.1663 15.9646 76.3061 15.4008 76.3307 15.3434C76.3307 15.3434 77.5177 17.1061 76.6999 18.0589C76.5057 17.699 76.3216 17.2321 76.2594 16.7157Z" fill="#66AA66"></path> <path d="M78.9816 17.6225C78.9971 17.5834 79.0126 17.5442 79.0282 17.5051C78.966 17.7164 78.9039 17.8729 78.8806 17.9276C78.9039 17.8338 78.935 17.732 78.9816 17.6225Z" fill="#66D2FF"></path> <path d="M79.1265 16.8635C79.1343 17.067 79.0955 17.286 79.0178 17.5051C79.0722 17.3252 79.1188 17.0983 79.1265 16.8635Z" fill="#FFBD00"></path> <path d="M79.9241 19.83C79.9425 19.8624 79.9176 19.9044 79.8805 19.9012C79.7319 19.8886 79.416 19.8519 79.0323 19.7511C78.8537 19.3129 78.6829 18.6478 78.8692 17.9358C78.8925 17.881 78.9547 17.7245 79.0168 17.5133C79.0168 17.5133 79.0168 17.5133 79.0168 17.5054C79.0945 17.2864 79.1255 17.0673 79.1255 16.8638V16.856C79.1488 16.2848 78.9624 15.651 78.116 15.3928C78.7838 15.5806 79.3896 16.0344 79.3896 17.0516C79.3896 18.7402 79.7847 19.5847 79.9241 19.83Z" fill="#66D2FF"></path> <path d="M79.1278 16.856C79.1045 15.9718 78.3357 15.2598 77 15.2754H76.9922C76.8213 15.2832 76.6272 15.2989 76.4253 15.3224C76.4564 15.3145 76.4874 15.3145 76.5262 15.3067C76.5418 15.3067 76.5495 15.3067 76.5651 15.2989C76.5806 15.2989 76.6039 15.2989 76.6272 15.2911C76.6738 15.2832 76.7282 15.2832 76.7903 15.2754C76.8136 15.2754 76.8369 15.2754 76.8602 15.2676C76.8757 15.2676 76.8835 15.2676 76.899 15.2676C76.9611 15.2676 77.0233 15.2598 77.0854 15.2598C77.132 15.2598 77.1786 15.2598 77.2329 15.2598C77.5047 15.2676 77.8154 15.2989 78.1027 15.3771H78.1105C78.9647 15.651 79.1511 16.2848 79.1278 16.856Z" fill="#66D2FF"></path> <path fill-rule="evenodd" clip-rule="evenodd" d="M73.8778 13.7105C73.8778 13.7105 73.4972 13.8279 73.3264 14.0783C73.3341 14.0548 73.3963 13.7888 73.3109 13.7027C73.3031 13.6949 71.0898 14.2348 71.0898 15.8779C71.0898 17.8262 72.2314 18.6165 72.278 18.6478C70.0063 15.2606 73.3768 14.6404 73.5749 14.604L73.5757 14.6038L73.5774 14.6068C72.2854 15.6628 72.146 17.131 72.1848 17.9749C72.1848 17.7558 72.2081 17.5524 72.2547 17.3567C72.3401 16.6447 72.6197 15.8466 73.4118 15.5571C73.6758 15.3302 73.87 15.2128 73.87 15.2128H73.8778C73.7834 14.9642 73.6009 14.6472 73.5774 14.6068L73.5827 14.6025C73.5813 14.6028 73.579 14.6032 73.5757 14.6038L73.5749 14.6025C73.5749 14.6025 73.9632 14.0861 73.8778 13.7105ZM72.5887 14.4069C72.5887 14.4069 72.9071 13.9296 73.2565 13.8044C73.2643 13.8044 73.3187 14.3756 72.5887 14.4069ZM73.7924 13.8514C73.5283 13.9922 73.4274 14.2817 73.4274 14.2817C73.6437 14.2223 73.7494 13.9565 73.7817 13.8751C73.7877 13.8601 73.7912 13.8514 73.7924 13.8514Z" fill="#66D2FF"></path> <path d="M72.1872 17.9748C72.1872 18.1938 72.2182 18.4129 72.2726 18.6477C69.9584 15.1971 73.4996 14.6181 73.5772 14.6024C72.2881 15.6587 72.1406 17.1219 72.1872 17.9748Z" fill="#66D2FF"></path> <path d="M72.2785 18.6475C72.2164 18.4128 72.1931 18.1859 72.1931 17.9746C72.2164 18.3737 72.2785 18.6319 72.2785 18.6475Z" fill="#00B4FF"></path> <path d="M72.5852 14.4071C72.5852 14.4071 72.9036 13.9298 73.2531 13.8046C73.2608 13.8046 73.3152 14.3758 72.5852 14.4071Z" fill="#5AC8F6"></path> <path d="M73.7786 13.8518C73.7786 13.8518 73.6698 14.2196 73.4136 14.2822C73.4213 14.2822 73.5223 13.9926 73.7786 13.8518Z" fill="#5AC8F6"></path> <path d="M85.0566 18.2412C84.6129 18.2412 84.19 18.4423 83.9335 18.8721C83.7394 18.47 83.365 18.2412 82.8798 18.2412C82.4638 18.2412 82.0895 18.4076 81.8191 18.8305V18.3244H81.3616V21.7906H81.8191V19.8704C81.8191 19.0107 82.3182 18.6849 82.8174 18.6849C83.3096 18.6849 83.6285 19.0107 83.6285 19.6277V21.7906H84.086V19.8704C84.086 19.0107 84.5158 18.6849 85.0496 18.6849C85.5418 18.6849 85.8954 19.0107 85.8954 19.6277V21.7906H86.3529V19.6277C86.3529 18.7612 85.8191 18.2412 85.0566 18.2412Z" fill="#8392B8"></path> <path d="M90.2189 18.3244V19.0038C89.9277 18.5393 89.4355 18.2412 88.8185 18.2412C87.841 18.2412 87.0299 19.0315 87.0299 20.0575C87.0299 21.0835 87.841 21.8738 88.8185 21.8738C89.4355 21.8738 89.9277 21.5757 90.2189 21.1113V21.7906H90.6764V18.3244H90.2189ZM88.8532 21.4302C88.0837 21.4302 87.4875 20.827 87.4875 20.0575C87.4875 19.288 88.0837 18.6849 88.8532 18.6849C89.6227 18.6849 90.2189 19.288 90.2189 20.0575C90.2189 20.827 89.6227 21.4302 88.8532 21.4302Z" fill="#8392B8"></path> <path d="M93.4822 18.7681V18.3244H92.484V17.3539L92.0264 17.4925V18.3244H91.2985V18.7681H92.0264V20.8686C92.0264 21.7005 92.5464 21.9293 93.4822 21.7906V21.3886C92.8098 21.4163 92.484 21.4648 92.484 20.8686V18.7681H93.4822Z" fill="#8392B8"></path> <path d="M94.4736 17.5896C94.6608 17.5896 94.8063 17.4371 94.8063 17.2568C94.8063 17.0766 94.6608 16.9241 94.4736 16.9241C94.2864 16.9241 94.1408 17.0766 94.1408 17.2568C94.1408 17.4371 94.2864 17.5896 94.4736 17.5896ZM94.2448 21.7906H94.7024V18.3244H94.2448V21.7906Z" fill="#8392B8"></path> </g> <rect opacity="0.3" x="37" y="41.8264" width="92.552" height="2.98555" rx="1.49277" fill="#8392B8"></rect> <rect opacity="0.3" x="49" y="48.9919" width="68.6676" height="2.98555" rx="1.49277" fill="#8392B8"></rect> <rect opacity="0.5" x="16.1519" y="218.571" width="12.5393" height="2.38844" rx="1.19422" fill="#8392B8"></rect> <rect opacity="0.5" x="48.396" y="218.571" width="20.8988" height="2.38844" rx="1.19422" fill="#8392B8"></rect> <rect opacity="0.3" x="93.1785" y="218.571" width="24.4815" height="2.38844" rx="1.19422" fill="#8392B8"></rect> <rect opacity="0.3" x="136.167" y="218.571" width="14.3306" height="2.38844" rx="1.19422" fill="#8392B8"></rect> <rect opacity="0.3" x="69.2915" y="194.686" width="27.467" height="3.58266" rx="1.79133" fill="white"></rect> <rect opacity="0.2" x="46" y="32.8698" width="73.4445" height="4.17977" rx="2.08988" fill="#232939"></rect> <rect opacity="0.2" x="80" y="163" width="19" height="3" rx="1.5" fill="#232939"></rect> <path d="M100.076 74.4612C104.698 81.3717 106.168 90.3897 105.751 98.6328C105.568 102.251 104.593 105.342 103.644 108.353C101.865 113.995 100.179 119.346 104.213 127.224C106.549 128.101 108.64 128.887 109.535 130.981C113.637 125.505 116.067 118.702 116.067 111.331C116.067 107.112 115.272 103.081 113.823 99.3784C112.318 95.5311 110.109 92.0391 107.356 89.0612C107.194 88.8859 107.205 88.6122 107.38 88.45C107.555 88.2878 107.829 88.2984 107.991 88.4737C110.82 91.5334 113.088 95.1175 114.631 99.0626C116.119 102.866 116.936 107.004 116.936 111.331C116.936 119.228 114.219 126.49 109.669 132.232C103.431 140.104 94.0854 144.766 84.051 144.991C83.7964 144.997 83.5415 145 83.2861 145C72.8708 145 63.1327 140.22 56.7437 132.028C52.2901 126.318 49.6362 119.135 49.6362 111.331C49.6362 102.916 52.7501 94.8672 58.4187 88.649C58.8021 88.2274 59.4436 88.8115 59.0602 89.2331C53.532 95.2972 50.5051 103.124 50.5051 111.331C50.5051 118.84 53.0272 125.76 57.2701 131.289C58.1144 129.307 60.0057 128.377 62.1865 127.486C68.4267 115.345 61.3802 109.689 60.821 98.6328C60.4041 90.3897 61.8737 81.3717 66.4966 74.4612C74.9356 61.8463 91.6366 61.8463 100.076 74.4612ZM57.9028 132.087C64.1281 139.7 73.3631 144.11 83.2169 144.13V142.771C81.7191 139.828 77.0973 131.055 73.0453 132.275C71.8717 132.628 71.7987 131.503 72.0446 130.526C72.2642 129.417 72.8602 127.956 73.0449 127.622C73.3822 127.011 72.7129 126.517 71.9148 126.075C71.1826 125.67 69.8156 125.112 69.4339 124.435C67.622 126.239 65.3624 127.145 63.2801 127.979C60.7969 128.974 58.5825 129.862 57.9028 132.087ZM73.7335 119.565C74.145 119.448 74.0793 119.489 74.3344 119.136C75.714 117.232 76.2816 115.244 76.3217 112.843C76.3277 112.609 76.3344 112.601 75.945 112.298C70.7407 108.242 67.9955 101.396 67.9124 94.9474C67.9058 94.3779 68.7712 94.3678 68.7779 94.9372C68.8554 100.954 71.8342 108.723 77.1861 112.224C78.964 113.387 81.0038 114.079 83.2861 114.079C91.6531 113.895 98.0559 104.472 98.0252 96.2137C98.0252 93.1057 97.4761 90.1866 96.4256 87.6451C95.3963 85.155 93.8858 83.0259 91.9396 81.437C90.6696 80.4001 90.3459 80.2876 89.4686 81.8687C84.7809 90.3166 74.8062 91.9613 68.0953 93.0678C66.5928 93.3158 65.6085 94.1789 65.2953 95.6881C65.1793 96.2464 64.3308 96.0699 64.4469 95.5115C64.8321 93.655 66.1008 92.5183 67.9562 92.2121C74.5004 91.1331 84.2273 89.5292 88.7118 81.4476C89.8723 79.3562 90.7931 79.3825 92.486 80.7646C94.5465 82.4468 96.1426 84.6934 97.2266 87.3157C98.3217 89.965 98.8941 92.9964 98.8941 96.2137C98.8941 102.085 96.2636 108.019 91.656 111.695C91.3679 111.925 91.3127 111.907 91.32 112.376C91.3651 115.076 92.1004 117.441 93.721 119.605C95.2783 120.085 96.7668 121.287 97.5755 122.71C98.776 124.823 100.81 125.89 103.022 126.769C99.3654 119.039 101.046 113.704 102.816 108.091C103.75 105.129 104.709 102.088 104.886 98.592C105.293 90.5347 103.875 81.698 99.3561 74.9434C91.2614 62.8431 75.3108 62.8431 67.2161 74.9434C62.6975 81.698 61.2789 90.5347 61.6864 98.592C62.2318 109.375 69.0646 115.027 63.3932 127C65.3263 126.22 67.5502 125.482 68.9705 123.67C70.3968 121.849 71.5604 120.282 73.7335 119.565ZM70.579 124.368C71.113 124.723 72.0174 125.141 72.3322 125.315C73.5302 125.978 74.5045 126.774 73.8052 128.039C73.6386 128.341 73.0989 129.67 72.8965 130.693C72.7933 131.14 72.6264 131.454 73.251 131.34C77.2618 130.606 81.5701 137.575 83.2169 140.611C83.2169 139.285 83.2524 138.157 83.1884 136.833C83.1084 135.178 82.9262 133.843 82.4312 132.614C81.8748 131.233 80.9109 129.96 79.2328 128.478C79.1247 128.383 78.9284 128.218 78.6962 128.024C76.9874 126.592 73.2981 123.5 73.3324 120.626C72.1401 121.141 70.8746 122.309 70.2995 123.479C70.0599 123.966 70.1425 124.077 70.579 124.368ZM84.0858 144.121C93.8083 143.888 102.85 139.375 108.906 131.794C108.154 129.268 105.111 128.518 102.843 127.63C101.104 126.948 99.3103 126.104 97.8377 124.55C97.4517 125.294 96.6061 125.856 95.8134 126.383C95.0025 126.922 94.2632 127.413 94.4393 127.789C94.835 128.633 95.2665 129.531 95.4191 130.457C95.5692 131.367 95.3967 132.133 94.468 132.287C89.3182 133.137 85.7073 138.152 84.0858 142.785V144.121ZM84.0858 140.577C86.0676 136.345 89.4922 132.229 94.3289 131.431C95.234 131.171 93.9034 128.685 93.6553 128.156C93.1622 127.104 94.1983 126.415 95.3349 125.66C96.4762 124.901 97.6592 124.38 96.8292 123.076C96.176 122.05 95.1022 121.106 93.9875 120.626C94.0221 123.5 90.3326 126.592 88.6237 128.024C88.3916 128.218 88.1952 128.383 88.0871 128.478C86.409 129.96 85.445 131.233 84.8887 132.614C84.3982 133.832 84.2149 135.154 84.1337 136.788C84.0719 138.033 84.0858 139.327 84.0858 140.577ZM83.6599 133.631C83.7704 133.17 83.9092 132.726 84.0843 132.292C84.6925 130.782 85.7265 129.408 87.5135 127.829C87.6834 127.679 87.8591 127.532 88.0671 127.358C89.7765 125.926 93.6154 122.709 93.0717 120.184C91.3535 117.915 90.5395 115.423 90.4589 112.58C88.2176 114.088 85.736 114.948 83.2861 114.948C81.1948 114.948 79.1095 114.303 77.1801 113.133C77.4331 115.518 75.5914 120.05 74.1984 120.566C74.0811 123.025 77.6285 125.997 79.2528 127.358C79.4607 127.532 79.6365 127.679 79.8064 127.829C81.5934 129.408 82.6274 130.782 83.2356 132.292C83.4107 132.726 83.5494 133.17 83.6599 133.631ZM68.2303 89.9101C67.8901 89.949 67.8311 89.4314 68.1712 89.3926C71.5644 89.001 75.6627 88.1709 78.3021 85.8683C78.559 85.6435 78.9011 86.0347 78.6443 86.2595C75.9111 88.6439 71.7444 89.5045 68.2303 89.9101Z" fill="#8392B8"></path> <circle cx="71" cy="164" r="4" fill="#FE838E"></circle> <path d="M39 72V67C39 66.4477 39.4477 66 40 66H45" stroke="#8392B8" stroke-linecap="round"></path> <path d="M120 66L125 66C125.552 66 126 66.4477 126 67L126 72" stroke="#8392B8" stroke-linecap="round"></path> <path d="M126 142L126 147C126 147.552 125.552 148 125 148L120 148" stroke="#8392B8" stroke-linecap="round"></path> <path d="M45 148L40 148C39.4477 148 39 147.552 39 147L39 142" stroke="#8392B8" stroke-linecap="round"></path> <defs> <filter id="filter0_d" x="0" y="0" width="174.054" height="243.379" filterUnits="userSpaceOnUse" color-interpolation-filters="sRGB"> <feFlood flood-opacity="0" result="BackgroundImageFix"></feFlood> <feColorMatrix in="SourceAlpha" type="matrix" values="0 0 0 0 0 0 0 0 0 0 0 0 0 0 0 0 0 0 127 0"></feColorMatrix> <feOffset dx="4" dy="4"></feOffset> <feGaussianBlur stdDeviation="5"></feGaussianBlur> <feColorMatrix type="matrix" values="0 0 0 0 0 0 0 0 0 0 0 0 0 0 0 0 0 0 0.1 0"></feColorMatrix> <feBlend mode="normal" in2="BackgroundImageFix" result="effect1_dropShadow"></feBlend> <feBlend mode="normal" in="SourceGraphic" in2="effect1_dropShadow" result="shape"></feBlend> </filter> </defs> </svg> 