<?xml version="1.0" encoding="UTF-8"?> <svg xmlns="http://www.w3.org/2000/svg" width="175" height="244" viewBox="0 0 175 244" fill="none"> <g filter="url(#filter0_d)"> <path d="M6 8.31081C6 7.03458 7.03459 6 8.31081 6L157.743 6C159.02 6 160.054 7.03459 160.054 8.31081V227.068C160.054 228.344 159.02 229.379 157.743 229.379H8.31081C7.03458 229.379 6 228.344 6 227.068L6 8.31081Z" fill="white"></path> <path fill-rule="evenodd" clip-rule="evenodd" d="M18.7855 15.3558C18.9359 15.5063 18.9359 15.7501 18.7855 15.9005L17.1322 17.5539L18.7855 19.2072C18.9359 19.3576 18.9359 19.6015 18.7855 19.7519C18.6351 19.9023 18.3913 19.9023 18.2409 19.7519L16.3152 17.8262C16.1648 17.6758 16.1648 17.4319 16.3152 17.2815L18.2409 15.3558C18.3913 15.2054 18.6351 15.2054 18.7855 15.3558Z" fill="#8392B8"></path> <path fill-rule="evenodd" clip-rule="evenodd" d="M150.699 15.3565C150.849 15.5069 150.849 15.7507 150.699 15.9011L146.847 19.7525C146.697 19.9029 146.453 19.9029 146.303 19.7525C146.152 19.6021 146.152 19.3582 146.303 19.2078L150.154 15.3565C150.305 15.2061 150.548 15.2061 150.699 15.3565Z" fill="#8392B8"></path> <path fill-rule="evenodd" clip-rule="evenodd" d="M146.303 15.3565C146.453 15.2061 146.697 15.2061 146.847 15.3565L150.699 19.2078C150.849 19.3582 150.849 19.6021 150.699 19.7525C150.548 19.9029 150.305 19.9029 150.154 19.7525L146.303 15.9011C146.152 15.7507 146.152 15.5069 146.303 15.3565Z" fill="#8392B8"></path> <path d="M79.0232 16.3499C79.0698 16.1621 79.1164 15.943 79.1319 15.7083C79.1319 15.9117 79.0931 16.1308 79.0232 16.3499Z" fill="#00AB62"></path> <path d="M72.2751 17.4918C72.213 17.257 72.1897 17.0301 72.1897 16.8188C72.213 17.2179 72.2751 17.4761 72.2751 17.4918Z" fill="#00B4FF"></path> <path d="M72.2751 17.4926C72.2674 17.4769 72.2052 17.2187 72.1897 16.8197V16.8119C72.1897 16.5928 72.213 16.3893 72.2596 16.1937C72.1819 16.8588 72.2674 17.4456 72.2751 17.4926Z" fill="#706766"></path> <path d="M73.4123 18.6048C73.1772 19.1899 72.9558 19.8428 72.8209 20.2564C72.7396 20.5055 72.5082 20.6763 72.2461 20.6763C72.0153 20.6763 71.9449 20.4859 72.1599 20.4022C72.2189 20.3793 72.2611 20.3654 72.2671 20.3635C72.2677 20.3633 72.2678 20.3633 72.2684 20.363C72.2879 20.3556 72.7317 20.1552 72.2833 17.4917C73.0366 17.8829 73.3036 18.018 73.4123 18.6048Z" fill="#FFC766"></path> <path d="M72.2751 17.4918C72.213 17.257 72.1897 17.0301 72.1897 16.8188C72.213 17.2179 72.2751 17.4761 72.2751 17.4918Z" fill="#FFA200"></path> <path d="M73.914 17.6793C73.4403 17.6558 72.8531 17.6939 72.2754 17.4915C72.2987 17.4445 72.6786 16.5525 73.1834 15.4806C73.4242 15.3867 73.7424 15.2774 74.1146 15.4261C74.1146 15.4261 74.1077 15.4346 74.131 15.4425C74.2245 16.1648 74.1143 16.9406 73.914 17.6793Z" fill="#EA6766"></path> <path d="M73.914 17.6795C73.7897 18.1959 73.6189 18.681 73.4558 19.0957C73.3393 18.5089 73.0287 17.8751 72.2754 17.4917C72.8967 17.6012 73.4403 17.656 73.914 17.6795Z" fill="#EA6766"></path> <path d="M74.436 17.6957C74.2588 18.9198 74.0507 20.123 73.8663 20.6156C73.8091 20.7684 73.6562 20.8333 73.4931 20.8333H73.4368C73.2146 20.8333 73.0316 20.7606 73.2103 20.6285C73.2757 20.5802 73.4452 20.43 73.4594 20.35C73.4989 20.1278 73.5607 19.6334 73.4575 19.0963C73.6206 18.6816 73.7915 18.1965 73.9157 17.6801C74.1021 17.6957 74.2729 17.6957 74.436 17.6957Z" fill="#EA6766"></path> <path d="M74.8542 14.3921C74.7144 14.3608 74.5901 14.3374 74.4659 14.3217C74.2795 14.2982 74.1087 14.2982 73.9533 14.3061C73.9533 14.3061 73.9533 14.3139 73.9611 14.3139C74.0854 14.5643 74.7843 14.9946 74.7843 14.9946C74.7843 15.511 74.2556 15.4503 74.1158 15.4347C74.1624 16.2015 74.0817 17.0055 73.9109 17.7019C74.0973 17.7097 74.4355 17.7002 74.5986 17.6923C74.8315 16.057 74.8619 14.3921 74.8542 14.3921C74.8619 14.3921 74.8619 14.3921 74.8542 14.3921Z" fill="#EA6766"></path> <path d="M73.1919 15.4812C72.6871 16.5532 72.2988 17.4452 72.2755 17.4921C72.2755 17.4138 72.2444 15.8646 73.1919 15.4812Z" fill="#EA6766"></path> <path d="M73.9553 14.2929C73.8854 14.3007 73.8155 14.3085 73.7534 14.3163C73.7922 14.2303 73.8388 14.1442 73.8854 14.0503C73.9087 14.1129 73.9553 14.2772 73.9553 14.2929Z" fill="#706766"></path> <path d="M73.889 14.0503C73.8424 14.1364 73.8036 14.2224 73.757 14.3163C73.6405 14.332 73.5241 14.3633 73.4231 14.4024C73.6871 14.1755 73.889 14.0503 73.889 14.0503Z" fill="#706766"></path> <path d="M74.787 14.9816C74.787 15.498 74.2574 15.4514 74.1176 15.4358C74.0943 15.0446 74.0726 14.6843 73.9639 14.3009C74.0804 14.5513 74.787 14.9816 74.787 14.9816Z" fill="#706766"></path> <path d="M73.4213 14.4022C73.0097 14.7543 72.4583 15.3725 72.2642 16.2018C72.3496 15.4898 72.6292 14.6917 73.4213 14.4022Z" fill="#706766"></path> <path d="M73.7558 14.3164C73.5617 14.7076 73.3753 15.1067 73.1967 15.4823C72.2415 15.8657 72.2803 17.4149 72.2803 17.4931C72.2726 17.4462 72.1871 16.8594 72.257 16.2021C72.4512 15.3649 73.0103 14.7546 73.4141 14.4025C73.5229 14.3634 73.6394 14.3321 73.7558 14.3164Z" fill="#706766"></path> <path d="M74.1225 15.4356C74.0992 15.4356 74.0979 15.4356 74.0979 15.4356C73.7252 15.3417 73.4404 15.3802 73.1997 15.4741C73.3783 15.0985 73.5647 14.6995 73.7588 14.3083C73.821 14.3004 73.8909 14.2926 73.9608 14.2848C73.9608 14.2848 73.9608 14.2926 73.9685 14.2926C74.0772 14.6838 74.0992 15.0522 74.1225 15.4356Z" fill="#706766"></path> <path d="M78.2294 19.1079C78.2738 19.2177 78.2843 19.34 78.2482 19.4528L77.9536 20.3742C77.8943 20.5594 77.7222 20.6851 77.5277 20.6851H77.4825C77.1882 20.6851 77.0901 20.4656 77.3607 20.3501C77.3951 20.3354 77.4166 20.3272 77.4166 20.3272C77.4166 20.3272 77.9755 19.5671 76.8834 18.2517C76.6038 17.9778 76.4175 17.6413 76.2932 17.2814C76.4718 17.1719 76.6172 17.0206 76.7182 16.8876C76.7492 16.9502 76.8028 17.0089 76.8166 17.0763C76.8244 17.0841 76.8412 17.0934 76.8412 17.1091C77.0121 17.3751 77.2266 17.6205 77.5139 17.8475C77.7314 18.0196 77.8988 18.1922 78.0308 18.3643C78.0687 18.6698 78.1622 18.942 78.2294 19.1079Z" fill="#CAEE66"></path> <path d="M76.7012 16.8979C76.7322 16.9605 76.7711 17.0152 76.8021 17.0778C76.7711 17.0152 76.7322 16.9605 76.7012 16.8979C76.4993 16.5379 76.3595 16.1076 76.2974 15.5912C76.3517 16.0059 76.4682 16.4597 76.7012 16.8979Z" fill="#A6E200"></path> <path d="M79.0162 16.3579C78.9541 16.5692 78.8919 16.7257 78.8687 16.7804C78.8919 16.6787 78.9308 16.577 78.9696 16.4753C78.9929 16.4362 79.0084 16.397 79.0162 16.3579Z" fill="#A6E200"></path> <path d="M79.1293 15.7008C79.106 14.8166 78.3372 14.1046 77.0015 14.1202C77.0325 14.1202 77.0636 14.1202 77.0947 14.1202C77.1412 14.1202 77.1878 14.1202 77.2422 14.1202C77.5917 14.1202 77.879 14.1672 78.112 14.2376H78.1197C78.9662 14.4958 79.1526 15.1296 79.1293 15.7008Z" fill="#A6E200"></path> <path d="M79.2121 18.961C79.271 19.0696 79.2959 19.1958 79.2696 19.3164L79.015 20.4814C78.9701 20.6867 78.7883 20.833 78.5782 20.833H78.424C78.1404 20.833 78.0559 20.6362 78.3224 20.5393C78.3289 20.5369 78.3324 20.5357 78.3324 20.5357C78.3324 20.5357 79.3359 20.1029 78.0218 18.404C78.014 18.3414 78.0218 18.2431 78.0218 18.1805C78.3712 18.3762 78.7284 18.5013 79.0391 18.5874C79.0999 18.7425 79.1624 18.8693 79.2121 18.961Z" fill="#66AA66"></path> <path d="M78.0874 18.5159C77.9086 18.1582 77.7222 18.0242 77.5125 17.8521C77.2252 17.6252 77.0077 17.367 76.8291 17.101C77.1553 17.5939 77.8639 17.7782 78.025 18.1886C78.025 18.2512 78.6686 19.1865 78.0874 18.5159Z" fill="#66AA66"></path> <path d="M79.0312 18.587C78.7206 18.5009 78.3634 18.3757 78.0139 18.1801C78.0139 17.7028 78.1925 17.1551 78.8604 16.7952C78.8604 16.7952 78.8604 16.7874 78.8682 16.7795C78.6818 17.4837 78.8526 18.1488 79.0312 18.587Z" fill="#66AA66"></path> <path d="M79.1269 15.7008C79.1191 15.9433 79.0726 16.1624 79.0182 16.3502C79.0182 16.3502 79.0182 16.3502 79.0182 16.358C79.0027 16.3972 78.9871 16.4363 78.9716 16.4754C78.925 16.5771 78.894 16.6788 78.8707 16.7806C78.8629 16.7962 78.8629 16.7962 78.8629 16.7962C78.195 17.1562 78.0164 17.7039 78.0242 18.189C77.5893 17.9464 77.1544 17.6021 76.8282 17.1014C76.8205 17.0935 76.8127 17.0857 76.8127 17.0701C76.7739 17.0153 76.7428 16.9527 76.7118 16.8901C77.4417 15.8573 76.3318 14.1883 76.3318 14.1883C76.3318 14.1883 76.3545 14.175 76.3934 14.175C76.4011 14.175 76.4167 14.175 76.4244 14.1672C76.6263 14.1437 76.8127 14.1281 76.9913 14.1202H76.9991C78.3348 14.1046 79.1036 14.8166 79.1269 15.7008Z" fill="#66AA66"></path> <path d="M76.3052 17.2815C75.9169 17.524 75.3268 17.6883 74.4492 17.6962C74.69 16.053 74.8601 14.3935 74.8601 14.3935C75.2407 14.4326 75.7383 14.3864 76.3363 14.1908C76.3052 14.2769 75.8471 15.9435 76.3052 17.2815Z" fill="#EA6766"></path> <path d="M76.7244 16.8958C76.6234 17.0366 76.4764 17.1719 76.2978 17.2814C75.8396 15.9434 76.3073 14.2827 76.3306 14.1967C76.3228 14.2514 76.2063 14.8324 76.2995 15.5757V15.5835C76.3694 16.1078 76.5303 16.5359 76.7244 16.8958Z" fill="#EA6766"></path> <path d="M76.256 15.5604C76.1628 14.8093 76.3026 14.2455 76.3273 14.1881C76.3273 14.1881 77.5143 15.9508 76.6964 16.9037C76.5023 16.5437 76.3181 16.0768 76.256 15.5604Z" fill="#66AA66"></path> <path d="M78.9823 16.4667C78.9978 16.4276 79.0134 16.3885 79.0289 16.3494C78.9668 16.5606 78.9046 16.7171 78.8813 16.7719C78.9046 16.678 78.9357 16.5763 78.9823 16.4667Z" fill="#66D2FF"></path> <path d="M79.1275 15.7083C79.1353 15.9117 79.0965 16.1308 79.0188 16.3499C79.0732 16.1699 79.1198 15.943 79.1275 15.7083Z" fill="#FFBD00"></path> <path d="M79.9258 18.6752C79.9442 18.7076 79.9193 18.7496 79.8822 18.7465C79.7336 18.7338 79.4177 18.6971 79.034 18.5963C78.8554 18.1581 78.6846 17.493 78.871 16.781C78.8943 16.7262 78.9564 16.5697 79.0185 16.3585C79.0185 16.3585 79.0185 16.3585 79.0185 16.3507C79.0962 16.1316 79.1272 15.9125 79.1272 15.709V15.7012C79.1505 15.13 78.9641 14.4962 78.1177 14.238C78.7855 14.4258 79.3913 14.8796 79.3913 15.8968C79.3913 17.5855 79.7865 18.43 79.9258 18.6752Z" fill="#66D2FF"></path> <path d="M79.1288 15.7007C79.1055 14.8165 78.3367 14.1045 77.0009 14.1201H76.9932C76.8223 14.128 76.6282 14.1436 76.4263 14.1671C76.4573 14.1593 76.4884 14.1593 76.5272 14.1514C76.5428 14.1514 76.5505 14.1514 76.5661 14.1436C76.5816 14.1436 76.6049 14.1436 76.6282 14.1358C76.6748 14.128 76.7291 14.128 76.7913 14.1201C76.8146 14.1201 76.8379 14.1201 76.8612 14.1123C76.8767 14.1123 76.8845 14.1123 76.9 14.1123C76.9621 14.1123 77.0242 14.1045 77.0864 14.1045C77.133 14.1045 77.1796 14.1045 77.2339 14.1045C77.5057 14.1123 77.8163 14.1436 78.1037 14.2219H78.1114C78.9657 14.4957 79.1521 15.1295 79.1288 15.7007Z" fill="#66D2FF"></path> <path fill-rule="evenodd" clip-rule="evenodd" d="M73.8741 12.5548C73.8741 12.5548 73.4936 12.6722 73.3227 12.9225C73.3305 12.8991 73.3926 12.633 73.3072 12.547C73.2994 12.5391 71.0862 13.079 71.0862 14.7222C71.0862 16.6705 72.2278 17.4607 72.2743 17.492C70.0027 14.1049 73.3731 13.4847 73.5713 13.4482L73.572 13.4481L73.5737 13.4511C72.2817 14.5071 72.1424 15.9752 72.1812 16.8191C72.1812 16.6 72.2045 16.3966 72.251 16.201C72.3365 15.489 72.616 14.6909 73.4082 14.4014C73.6722 14.1744 73.8663 14.0571 73.8663 14.0571H73.8741C73.7797 13.8084 73.5972 13.4915 73.5737 13.4511L73.579 13.4468C73.5777 13.447 73.5753 13.4475 73.572 13.4481L73.5712 13.4468C73.5712 13.4468 73.9595 12.9304 73.8741 12.5548ZM72.585 13.2511C72.585 13.2511 72.9034 12.7738 73.2529 12.6486C73.2607 12.6486 73.315 13.2198 72.585 13.2511ZM73.7887 12.6956C73.5247 12.8364 73.4237 13.1259 73.4237 13.1259C73.6401 13.0665 73.7457 12.8007 73.7781 12.7194C73.784 12.7043 73.7875 12.6956 73.7887 12.6956Z" fill="#66D2FF"></path> <path d="M72.1881 16.819C72.1881 17.0381 72.2192 17.2572 72.2736 17.4919C69.9594 14.0413 73.5006 13.4623 73.5782 13.4467C72.2891 14.503 72.1416 15.9661 72.1881 16.819Z" fill="#66D2FF"></path> <path d="M72.2751 17.4918C72.213 17.257 72.1897 17.0301 72.1897 16.8188C72.213 17.2179 72.2751 17.4761 72.2751 17.4918Z" fill="#00B4FF"></path> <path d="M72.5876 13.2512C72.5876 13.2512 72.906 12.7739 73.2555 12.6487C73.2633 12.6487 73.3176 13.2199 72.5876 13.2512Z" fill="#5AC8F6"></path> <path d="M73.7854 12.6953C73.7854 12.6953 73.6767 13.0631 73.4204 13.1257C73.4282 13.1257 73.5291 12.8362 73.7854 12.6953Z" fill="#5AC8F6"></path> <path d="M85.0575 17.0855C84.6139 17.0855 84.191 17.2865 83.9345 17.7163C83.7404 17.3142 83.366 17.0855 82.8808 17.0855C82.4648 17.0855 82.0905 17.2519 81.8201 17.6747V17.1687H81.3625V20.6349H81.8201V18.7146C81.8201 17.855 82.3192 17.5292 82.8184 17.5292C83.3106 17.5292 83.6295 17.855 83.6295 18.472V20.6349H84.087V18.7146C84.087 17.855 84.5168 17.5292 85.0506 17.5292C85.5428 17.5292 85.8964 17.855 85.8964 18.472V20.6349H86.3539V18.472C86.3539 17.6054 85.8201 17.0855 85.0575 17.0855Z" fill="#8392B8"></path> <path d="M90.2198 17.1687V17.848C89.9287 17.3836 89.4365 17.0855 88.8195 17.0855C87.842 17.0855 87.0309 17.8758 87.0309 18.9018C87.0309 19.9278 87.842 20.7181 88.8195 20.7181C89.4365 20.7181 89.9287 20.42 90.2198 19.9555V20.6349H90.6774V17.1687H90.2198ZM88.8541 20.2744C88.0846 20.2744 87.4884 19.6713 87.4884 18.9018C87.4884 18.1323 88.0846 17.5292 88.8541 17.5292C89.6236 17.5292 90.2198 18.1323 90.2198 18.9018C90.2198 19.6713 89.6236 20.2744 88.8541 20.2744Z" fill="#8392B8"></path> <path d="M93.4832 17.6123V17.1687H92.4849V16.1981L92.0274 16.3368V17.1687H91.2995V17.6123H92.0274V19.7129C92.0274 20.5448 92.5473 20.7735 93.4832 20.6349V20.2328C92.8108 20.2605 92.4849 20.3091 92.4849 19.7129V17.6123H93.4832Z" fill="#8392B8"></path> <path d="M94.4746 16.4338C94.6617 16.4338 94.8073 16.2813 94.8073 16.1011C94.8073 15.9208 94.6617 15.7683 94.4746 15.7683C94.2874 15.7683 94.1418 15.9208 94.1418 16.1011C94.1418 16.2813 94.2874 16.4338 94.4746 16.4338ZM94.2458 20.6349H94.7033V17.1687H94.2458V20.6349Z" fill="#8392B8"></path> </g> <rect opacity="0.5" x="16.1482" y="218.058" width="12.5393" height="2.38844" rx="1.19422" fill="#8392B8"></rect> <rect opacity="0.5" x="48.3923" y="218.058" width="20.8988" height="2.38844" rx="1.19422" fill="#8392B8"></rect> <rect opacity="0.3" x="93.1748" y="218.058" width="24.4815" height="2.38844" rx="1.19422" fill="#8392B8"></rect> <rect opacity="0.3" x="135.575" y="218.058" width="14.3306" height="2.38844" rx="1.19422" fill="#8392B8"></rect> <rect opacity="0.2" x="39" y="131" width="88.3722" height="4.17977" rx="2.08988" fill="#232939"></rect> <rect opacity="0.2" x="60" y="141.15" width="45.9774" height="4.17977" rx="2.08988" fill="#232939"></rect> <path d="M22.2891 214.615H143.607V215H22.2891V214.615Z" fill="#CBD2E2"></path> <path d="M22.2375 214.475H59.2583V215.072H22.2375V214.475Z" fill="#8392B8"></path> <path d="M23.4452 214.807C23.4452 215.339 23.0141 215.77 22.4824 215.77C21.9506 215.77 21.5195 215.339 21.5195 214.807C21.5195 214.276 21.9506 213.844 22.4824 213.844C23.0141 213.844 23.4452 214.276 23.4452 214.807Z" fill="#8392B8"></path> <path d="M60.4254 214.808C60.4254 215.339 59.9944 215.77 59.4626 215.77C58.9308 215.77 58.4998 215.339 58.4998 214.808C58.4998 214.276 58.9308 213.845 59.4626 213.845C59.9944 213.845 60.4254 214.276 60.4254 214.808Z" fill="#8392B8"></path> <path d="M106.639 214.807C106.639 215.339 106.208 215.77 105.676 215.77C105.144 215.77 104.713 215.339 104.713 214.807C104.713 214.276 105.144 213.844 105.676 213.844C106.208 213.844 106.639 214.276 106.639 214.807Z" fill="#CBD2E2"></path> <path d="M144.383 214.807C144.383 215.339 143.952 215.77 143.42 215.77C142.889 215.77 142.458 215.339 142.458 214.807C142.458 214.276 142.889 213.844 143.42 213.844C143.952 213.844 144.383 214.276 144.383 214.807Z" fill="#CBD2E2"></path> <path d="M21 189.235C21 187.959 22.0346 186.924 23.3108 186.924H141.933C143.209 186.924 144.243 187.959 144.243 189.235V203.87C144.243 205.147 143.209 206.181 141.933 206.181H23.3108C22.0346 206.181 21 205.147 21 203.87V189.235Z" fill="#232939"></path> <rect opacity="0.3" x="68.7656" y="194.686" width="27.467" height="3.58266" rx="1.79133" fill="white"></rect> <path d="M77.4264 99.1715L71.2472 92.9754C68.2393 89.9509 72.8342 85.3806 75.8426 88.4056L79.9064 92.4805C80.4932 93.069 80.4045 92.9509 81.0004 92.3533L90.164 83.1646C93.1724 80.1396 97.7673 84.71 94.7594 87.7345C90.8838 91.6207 86.9797 95.4912 83.1275 99.3993C81.2334 101.321 79.1292 100.879 77.4264 99.1715ZM72.0131 92.2138L78.1969 98.4146C79.5375 99.7587 80.989 100.071 82.3982 98.5998L93.9935 86.9729C95.9997 84.9556 92.9357 81.9094 90.9299 83.9263L81.1084 93.7747C80.5086 94.4053 80.2215 94.381 79.6835 93.7867L75.0766 89.1673C73.0708 87.1504 70.0069 90.1965 72.0131 92.2138ZM73.5548 65.1019C74.8715 63.9602 75.8907 63.6023 77.6238 63.9593C78.976 64.2379 80.3066 64.0851 81.5582 63.5009C83.1621 62.7522 84.2407 62.8703 85.7869 63.6721C87.112 64.3592 88.1859 64.5321 89.6609 64.3072C91.3791 64.0451 92.4426 64.2694 93.7166 65.498C94.714 66.4599 95.9027 67.0163 97.2767 67.1853C99.0309 67.401 99.8778 68.0621 100.746 69.5721C101.48 70.8492 102.293 71.5593 103.645 72.1425C105.231 72.8276 106.014 73.5805 106.408 75.2992C106.713 76.6274 107.406 77.7262 108.461 78.5875C109.822 79.6994 110.173 80.7107 110.067 82.4392C109.978 83.8942 110.263 84.917 111.079 86.1241C112.044 87.5516 112.274 88.6048 111.659 90.2475C111.184 91.5149 111.152 92.8042 111.565 94.0933C112.102 95.7698 111.818 96.8031 110.783 98.1862C109.913 99.3492 109.575 100.367 109.594 101.819C109.615 103.552 109.218 104.544 107.804 105.591C106.707 106.404 105.962 107.467 105.592 108.782C105.114 110.479 104.295 111.195 102.678 111.805C101.298 112.325 100.453 112.997 99.6571 114.24C98.7199 115.703 97.8332 116.327 96.0758 116.461C94.7006 116.565 93.4749 117.071 92.437 117.981C91.1095 119.145 90.0286 119.323 88.3281 118.982C86.8638 118.688 85.7863 118.811 84.4295 119.436C82.8623 120.157 81.7475 120.227 80.1949 119.411C78.9679 118.767 77.6564 118.554 76.2875 118.77C74.5413 119.045 73.5389 118.642 72.2788 117.439C71.205 116.415 70.2229 115.954 68.7508 115.765C67.0313 115.544 66.0683 115.041 65.1953 113.503C64.5185 112.31 63.5313 111.445 62.2708 110.908C60.6532 110.22 60.0209 109.345 59.624 107.658C59.2887 106.233 58.7188 105.331 57.5904 104.399C56.2596 103.3 55.7269 102.361 55.8442 100.604C55.9348 99.2485 55.5908 98.009 54.8241 96.8879C53.8323 95.4372 53.7964 94.3678 54.3936 92.7465C54.8981 91.3772 54.9242 90.3262 54.4866 88.9338C53.9699 87.2894 54.0605 86.2155 55.1179 84.8179C55.9369 83.7355 56.3441 82.5096 56.3197 81.1514C56.2882 79.3927 56.866 78.479 58.246 77.4455C59.4172 76.5684 60.0336 75.6898 60.4376 74.2831C60.9167 72.6151 61.5893 71.7734 63.239 71.1611C64.523 70.6844 65.5537 69.8632 66.2871 68.7048C67.2318 67.2124 68.2219 66.7489 69.9489 66.6086C71.4304 66.4882 72.4312 66.0762 73.5548 65.1019ZM74.2615 65.9186C72.9357 67.0683 71.7813 67.5456 70.0335 67.6877C68.6625 67.7991 67.9553 68.0889 67.2011 69.2803C66.3073 70.692 65.1803 71.5916 63.6156 72.1724C62.302 72.66 61.8583 73.2573 61.4786 74.5793C60.9964 76.2581 60.2899 77.2629 58.8935 78.3087C57.8047 79.124 57.3737 79.74 57.3988 81.1345C57.4284 82.787 56.9778 84.1523 55.9811 85.4696C55.1411 86.5798 55.1105 87.3119 55.5191 88.6122C56.0374 90.2617 56.0068 91.4969 55.4092 93.1189C54.9399 94.3927 54.9339 95.1335 55.7169 96.2786C56.6483 97.6407 57.0333 99.029 56.9232 100.676C56.8305 102.065 57.2289 102.701 58.2758 103.565C59.5888 104.649 60.287 105.752 60.6775 107.412C60.9925 108.751 61.4048 109.366 62.6939 109.914C64.2273 110.566 65.3113 111.519 66.1347 112.97C66.8287 114.193 67.5252 114.52 68.8862 114.695C70.588 114.913 71.782 115.472 73.0235 116.657C74.0269 117.614 74.7262 117.924 76.1225 117.703C77.7779 117.442 79.2142 117.675 80.6984 118.455C81.9481 119.111 82.7213 119.032 83.9767 118.454C85.5361 117.736 86.8557 117.582 88.5397 117.92C89.8991 118.193 90.6589 118.104 91.7261 117.169C92.986 116.064 94.326 115.509 95.9954 115.382C97.4016 115.275 98.0002 114.823 98.7474 113.656C99.6921 112.182 100.661 111.411 102.298 110.793C103.576 110.311 104.171 109.839 104.551 108.49C105 106.894 105.83 105.71 107.161 104.724C108.279 103.896 108.531 103.197 108.514 101.832C108.493 100.089 108.876 98.934 109.92 97.5387C110.731 96.4549 110.959 95.7431 110.536 94.4233C110.034 92.8533 110.069 91.4144 110.647 89.8709C111.135 88.5682 110.942 87.8543 110.182 86.7291C109.231 85.3228 108.884 84.0714 108.988 82.3757C109.071 81.0145 108.857 80.3051 107.78 79.4253C106.496 78.3772 105.726 77.157 105.355 75.5404C105.042 74.1763 104.469 73.6775 103.217 73.1369C101.611 72.4433 100.683 71.6281 99.8104 70.1095C99.123 68.9135 98.5385 68.4314 97.1455 68.26C95.4905 68.0565 94.1688 67.435 92.9677 66.2766C91.9502 65.2954 91.1868 65.1695 89.8217 65.3777C88.0859 65.6424 86.851 65.4412 85.2918 64.6326C84.0609 63.9943 83.2985 63.8793 82.0151 64.4784C80.4916 65.1895 79.0543 65.3563 77.4079 65.0172C76.0237 64.732 75.3087 65.0105 74.2615 65.9186ZM83.0033 68.8605C95.5769 68.8605 106.183 78.7793 106.183 91.502C106.183 104.225 95.5769 114.143 83.0033 114.143C70.4297 114.143 59.824 104.225 59.824 91.502C59.824 78.7794 70.4297 68.8605 83.0033 68.8605ZM83.0033 69.4021C70.7262 69.4021 60.3657 79.0759 60.3657 91.502C60.3657 103.928 70.7262 113.602 83.0033 113.602C95.2804 113.602 105.641 103.928 105.641 91.502C105.641 79.0759 95.2804 69.4021 83.0033 69.4021Z" fill="#00C1B9"></path> <defs> <filter id="filter0_d" x="0" y="0" width="174.054" height="243.379" filterUnits="userSpaceOnUse" color-interpolation-filters="sRGB"> <feFlood flood-opacity="0" result="BackgroundImageFix"></feFlood> <feColorMatrix in="SourceAlpha" type="matrix" values="0 0 0 0 0 0 0 0 0 0 0 0 0 0 0 0 0 0 127 0"></feColorMatrix> <feOffset dx="4" dy="4"></feOffset> <feGaussianBlur stdDeviation="5"></feGaussianBlur> <feColorMatrix type="matrix" values="0 0 0 0 0 0 0 0 0 0 0 0 0 0 0 0 0 0 0.1 0"></feColorMatrix> <feBlend mode="normal" in2="BackgroundImageFix" result="effect1_dropShadow"></feBlend> <feBlend mode="normal" in="SourceGraphic" in2="effect1_dropShadow" result="shape"></feBlend> </filter> </defs> </svg> 