<svg width="70" height="70" viewBox="0 0 70 70" fill="none" xmlns="http://www.w3.org/2000/svg">
<rect width="70" height="70" rx="8" fill="white" fill-opacity="0.05"/>
<rect x="0.75" y="0.75" width="68.5" height="68.5" rx="7.25" stroke="white" stroke-opacity="0.16" stroke-width="1.5"/>
<path fill-rule="evenodd" clip-rule="evenodd" d="M35 27C35.2357 27 35.4618 27.0937 35.6285 27.2604C35.7952 27.4271 35.8889 27.6532 35.8889 27.889V35.0009C35.8889 35.2366 35.7952 35.4628 35.6285 35.6295C35.4618 35.7962 35.2357 35.8899 35 35.8899H27.8889C27.6531 35.8899 27.427 35.7962 27.2603 35.6295C27.0937 35.4628 27 35.2366 27 35.0009C27 34.7651 27.0937 34.539 27.2603 34.3723C27.427 34.2055 27.6531 34.1119 27.8889 34.1119H34.1111V27.889C34.1111 27.6532 34.2048 27.4271 34.3715 27.2604C34.5382 27.0937 34.7642 27 35 27Z" fill="white"/>
<path fill-rule="evenodd" clip-rule="evenodd" d="M34.1111 34.9987C34.1111 34.763 34.2047 34.5368 34.3714 34.3701C34.5381 34.2034 34.7642 34.1097 35 34.1097H42.1111C42.3468 34.1097 42.5729 34.2034 42.7396 34.3701C42.9063 34.5368 43 34.763 43 34.9987C43 35.2345 42.9063 35.4606 42.7396 35.6273C42.5729 35.7941 42.3468 35.8877 42.1111 35.8877H35.8889V42.1106C35.8889 42.3464 35.7952 42.5725 35.6285 42.7392C35.4618 42.9059 35.2357 42.9996 35 42.9996C34.7642 42.9996 34.5381 42.9059 34.3714 42.7392C34.2047 42.5725 34.1111 42.3464 34.1111 42.1106V34.9987Z" fill="white"/>
</svg>
