<svg width="35" height="35" viewBox="0 0 35 35" fill="none" xmlns="http://www.w3.org/2000/svg">
<path fill-rule="evenodd" clip-rule="evenodd" d="M35 17.5C35 22.1413 33.1563 26.5925 29.8744 29.8744C26.5925 33.1563 22.1413 35 17.5 35C12.8587 35 8.40752 33.1563 5.12563 29.8744C1.84374 26.5925 0 22.1413 0 17.5C0 12.8587 1.84374 8.40752 5.12563 5.12563C8.40752 1.84374 12.8587 0 17.5 0C22.1413 0 26.5925 1.84374 29.8744 5.12563C33.1563 8.40752 35 12.8587 35 17.5ZM17.5 7.65625C17.5 7.36617 17.3848 7.08797 17.1796 6.88285C16.9745 6.67773 16.6963 6.5625 16.4062 6.5625C16.1162 6.5625 15.838 6.67773 15.6329 6.88285C15.4277 7.08797 15.3125 7.36617 15.3125 7.65625V19.6875C15.3126 19.8803 15.3636 20.0696 15.4604 20.2364C15.5572 20.4031 15.6963 20.5413 15.8637 20.6369L23.52 25.0119C23.7713 25.1477 24.0657 25.1798 24.3403 25.1014C24.6149 25.023 24.848 24.8403 24.9897 24.5923C25.1314 24.3443 25.1705 24.0508 25.0986 23.7744C25.0267 23.498 24.8495 23.2607 24.605 23.1131L17.5 19.0531V7.65625Z" fill="white" fill-opacity="0.16"/>
</svg>
