<svg width="24" height="24" viewBox="0 0 24 24" fill="none" xmlns="http://www.w3.org/2000/svg">
<path d="M20.664 3.47806L8 8.00006V15.0001L8.748 15.2671L7.621 17.5211C7.49264 17.7773 7.42088 18.0582 7.41059 18.3446C7.4003 18.631 7.45171 18.9163 7.56135 19.1811C7.67099 19.4459 7.83628 19.684 8.04603 19.8793C8.25578 20.0746 8.50507 20.2225 8.777 20.3131L12.861 21.6741C13.3179 21.823 13.8129 21.8038 14.2568 21.6199C14.7007 21.436 15.0643 21.0995 15.282 20.6711L16.585 18.0651L20.664 19.5221C20.8148 19.5759 20.9764 19.5927 21.1351 19.571C21.2937 19.5494 21.4449 19.49 21.5758 19.3978C21.7068 19.3055 21.8136 19.1832 21.8875 19.0411C21.9613 18.899 21.9999 18.7412 22 18.5811V4.41906C21.9999 4.25891 21.9613 4.10114 21.8875 3.95902C21.8136 3.8169 21.7068 3.69458 21.5758 3.60236C21.4449 3.51014 21.2937 3.45072 21.1351 3.42909C20.9764 3.40745 20.8148 3.42425 20.664 3.47806ZM13.493 19.7771L9.41 18.4161L10.645 15.9451L14.687 17.3891L13.493 19.7771ZM4 15.0001H6V8.00006H4C2.897 8.00006 2 8.89706 2 10.0001V13.0001C2 14.1031 2.897 15.0001 4 15.0001Z" fill="white" fill-opacity="0.87"/>
</svg>
