<svg width="40" height="40" viewBox="0 0 40 40" fill="none" xmlns="http://www.w3.org/2000/svg">
<path d="M19.9999 3.33398C16.7036 3.33398 13.4812 4.31147 10.7404 6.14282C7.9996 7.97418 5.86339 10.5772 4.60193 13.6226C3.34047 16.668 3.01042 20.0191 3.6535 23.2522C4.29659 26.4852 5.88394 29.4549 8.21481 31.7858C10.5457 34.1166 13.5154 35.704 16.7484 36.3471C19.9814 36.9902 23.3325 36.6601 26.378 35.3986C29.4234 34.1372 32.0264 32.001 33.8577 29.2602C35.6891 26.5193 36.6666 23.297 36.6666 20.0007C36.6666 17.812 36.2355 15.6447 35.3979 13.6226C34.5603 11.6005 33.3327 9.76318 31.785 8.21554C30.2374 6.6679 28.4001 5.44024 26.378 4.60266C24.3559 3.76508 22.1886 3.33398 19.9999 3.33398ZM26.6666 21.6673H19.9999C19.5579 21.6673 19.134 21.4917 18.8214 21.1792C18.5089 20.8666 18.3333 20.4427 18.3333 20.0007V13.334C18.3333 12.892 18.5089 12.468 18.8214 12.1555C19.134 11.8429 19.5579 11.6673 19.9999 11.6673C20.442 11.6673 20.8659 11.8429 21.1784 12.1555C21.491 12.468 21.6666 12.892 21.6666 13.334V18.334H26.6666C27.1086 18.334 27.5325 18.5096 27.8451 18.8221C28.1577 19.1347 28.3333 19.5586 28.3333 20.0007C28.3333 20.4427 28.1577 20.8666 27.8451 21.1792C27.5325 21.4917 27.1086 21.6673 26.6666 21.6673Z" fill="white" fill-opacity="0.14"/>
</svg>
