<svg width="41" height="40" viewBox="0 0 41 40" fill="none" xmlns="http://www.w3.org/2000/svg">
<path d="M20.1174 3.33398C16.821 3.33398 13.5987 4.31147 10.8579 6.14282C8.11703 7.97418 5.98083 10.5772 4.71937 13.6226C3.4579 16.668 3.12785 20.0191 3.77094 23.2522C4.41402 26.4852 6.00137 29.4549 8.33224 31.7858C10.6631 34.1166 13.6328 35.704 16.8659 36.3471C20.0989 36.9902 23.45 36.6601 26.4954 35.3986C29.5408 34.1372 32.1438 32.001 33.9752 29.2602C35.8065 26.5193 36.784 23.297 36.784 20.0007C36.784 17.812 36.3529 15.6447 35.5153 13.6226C34.6778 11.6005 33.4501 9.76318 31.9025 8.21554C30.3548 6.6679 28.5175 5.44024 26.4954 4.60266C24.4733 3.76508 22.3061 3.33398 20.1174 3.33398ZM26.784 21.6673H20.1174C19.6753 21.6673 19.2514 21.4917 18.9388 21.1792C18.6263 20.8666 18.4507 20.4427 18.4507 20.0007V13.334C18.4507 12.892 18.6263 12.468 18.9388 12.1555C19.2514 11.8429 19.6753 11.6673 20.1174 11.6673C20.5594 11.6673 20.9833 11.8429 21.2959 12.1555C21.6084 12.468 21.784 12.892 21.784 13.334V18.334H26.784C27.226 18.334 27.65 18.5096 27.9625 18.8221C28.2751 19.1347 28.4507 19.5586 28.4507 20.0007C28.4507 20.4427 28.2751 20.8666 27.9625 21.1792C27.65 21.4917 27.226 21.6673 26.784 21.6673Z" fill="white"/>
</svg>
