<svg width="16" height="16" viewBox="0 0 16 16" fill="none" xmlns="http://www.w3.org/2000/svg">
<path d="M8.00004 1.33398C6.6815 1.33398 5.39257 1.72498 4.29624 2.45752C3.19991 3.19006 2.34543 4.23125 1.84085 5.44943C1.33626 6.6676 1.20424 8.00805 1.46148 9.30125C1.71871 10.5945 2.35365 11.7823 3.286 12.7147C4.21835 13.647 5.40624 14.282 6.69944 14.5392C7.99265 14.7965 9.33309 14.6644 10.5513 14.1598C11.7694 13.6553 12.8106 12.8008 13.5432 11.7045C14.2757 10.6081 14.6667 9.31919 14.6667 8.00065C14.6667 7.12517 14.4943 6.25827 14.1592 5.44943C13.8242 4.64059 13.3331 3.90566 12.7141 3.28661C12.095 2.66755 11.3601 2.17649 10.5513 1.84145C9.74243 1.50642 8.87552 1.33398 8.00004 1.33398ZM8.00004 12.0007C7.86819 12.0007 7.7393 11.9616 7.62966 11.8883C7.52003 11.815 7.43458 11.7109 7.38412 11.5891C7.33367 11.4673 7.32046 11.3332 7.34619 11.2039C7.37191 11.0746 7.4354 10.9558 7.52864 10.8626C7.62187 10.7693 7.74066 10.7059 7.86998 10.6801C7.9993 10.6544 8.13335 10.6676 8.25517 10.7181C8.37698 10.7685 8.4811 10.854 8.55436 10.9636C8.62761 11.0732 8.66671 11.2021 8.66671 11.334C8.66671 11.5108 8.59647 11.6804 8.47145 11.8054C8.34642 11.9304 8.17686 12.0007 8.00004 12.0007ZM8.66671 8.56065V9.33398C8.66671 9.5108 8.59647 9.68036 8.47145 9.80539C8.34642 9.93041 8.17686 10.0007 8.00004 10.0007C7.82323 10.0007 7.65366 9.93041 7.52864 9.80539C7.40362 9.68036 7.33338 9.5108 7.33338 9.33398V8.00065C7.33338 7.82384 7.40362 7.65427 7.52864 7.52925C7.65366 7.40422 7.82323 7.33398 8.00004 7.33398C8.19783 7.33398 8.39116 7.27534 8.55561 7.16545C8.72006 7.05557 8.84824 6.89939 8.92392 6.71667C8.99961 6.53394 9.01941 6.33287 8.98083 6.13889C8.94224 5.94491 8.847 5.76673 8.70715 5.62688C8.5673 5.48703 8.38912 5.39178 8.19513 5.3532C8.00115 5.31461 7.80009 5.33442 7.61736 5.4101C7.43463 5.48579 7.27846 5.61397 7.16857 5.77841C7.05869 5.94286 7.00004 6.1362 7.00004 6.33398C7.00004 6.5108 6.92981 6.68036 6.80478 6.80539C6.67976 6.93041 6.51019 7.00065 6.33338 7.00065C6.15657 7.00065 5.987 6.93041 5.86197 6.80539C5.73695 6.68036 5.66671 6.5108 5.66671 6.33398C5.66497 5.90085 5.78382 5.47578 6.00995 5.10637C6.23609 4.73695 6.56059 4.43777 6.94712 4.24232C7.33365 4.04687 7.76696 3.96287 8.19852 3.99971C8.63009 4.03656 9.04288 4.1928 9.39068 4.45095C9.73848 4.7091 10.0076 5.05896 10.1678 5.46136C10.328 5.86377 10.3731 6.30283 10.298 6.7294C10.2228 7.15597 10.0304 7.5532 9.74233 7.87662C9.45423 8.20005 9.08179 8.43689 8.66671 8.56065Z" fill="white" fill-opacity="0.6"/>
</svg>
