<svg width="54" height="40" viewBox="0 0 54 40" fill="none" xmlns="http://www.w3.org/2000/svg">
<path d="M36.6778 4.91602H29.43C28.755 4.91602 28.1053 5.14643 27.6075 5.56117L19.3134 12.4736C19.305 12.4812 19.2966 12.4966 19.2881 12.5043C17.8875 13.7024 17.9128 15.6149 19.1109 16.8053C20.1825 17.8729 22.4353 18.1571 23.8444 17.0127C23.8528 17.005 23.8697 17.005 23.8781 16.9973L30.6197 11.3753C31.1681 10.9221 32.0288 10.9528 32.5266 11.4521C33.0328 11.9513 32.9906 12.727 32.4422 13.1878L30.24 15.0235L42.525 24.1017C42.7697 24.2861 42.9891 24.4857 43.1916 24.6931V9.83149L38.5847 5.63798C38.0869 5.17715 37.395 4.91602 36.6778 4.91602ZM45.9 9.84685V27.0433C45.9 28.4028 47.1066 29.5011 48.6 29.5011H54V9.84685H45.9ZM49.95 27.0433C49.2075 27.0433 48.6 26.4903 48.6 25.8145C48.6 25.1386 49.2075 24.5856 49.95 24.5856C50.6925 24.5856 51.3 25.1386 51.3 25.8145C51.3 26.4903 50.6925 27.0433 49.95 27.0433ZM0 29.4934H5.4C6.89344 29.4934 8.1 28.3951 8.1 27.0357V9.84685H0V29.4934ZM4.05 24.5856C4.7925 24.5856 5.4 25.1386 5.4 25.8145C5.4 26.4903 4.7925 27.0433 4.05 27.0433C3.3075 27.0433 2.7 26.4903 2.7 25.8145C2.7 25.1309 3.3075 24.5856 4.05 24.5856ZM40.8291 26.0142L28.2319 16.7055L25.7006 18.8176C23.1947 20.899 19.3556 20.6993 17.1197 18.4797C14.85 16.2216 15.0272 12.727 17.4909 10.6687L24.3928 4.91602H17.3222C16.605 4.91602 15.9216 5.17715 15.4153 5.63798L10.8 9.83149V27.028H12.3441L19.98 33.3182C22.2919 35.031 25.6922 34.7084 27.5737 32.604L27.5906 32.5886L29.1009 33.7791C30.4425 34.7775 32.4253 34.5855 33.5138 33.3643L36.1631 30.3997L36.6188 30.7376C37.7747 31.5901 39.4791 31.4365 40.4156 30.3766L41.2172 29.478C42.1622 28.4181 41.985 26.8744 40.8291 26.0142Z" fill="white" fill-opacity="0.14"/>
</svg>
