<svg width="54" height="40" viewBox="0 0 54 40" fill="none" xmlns="http://www.w3.org/2000/svg">
<path d="M36.6778 5H29.43C28.755 5 28.1053 5.23438 27.6075 5.65625L19.3134 12.6875C19.305 12.6953 19.2966 12.7109 19.2881 12.7187C17.8875 13.9375 17.9128 15.8828 19.1109 17.0937C20.1825 18.1797 22.4353 18.4687 23.8444 17.3047C23.8528 17.2969 23.8697 17.2969 23.8781 17.2891L30.6197 11.5703C31.1681 11.1094 32.0288 11.1406 32.5266 11.6484C33.0328 12.1562 32.9906 12.9453 32.4422 13.4141L30.24 15.2812L42.525 24.5156C42.7697 24.7031 42.9891 24.9062 43.1916 25.1172V10L38.5847 5.73438C38.0869 5.26563 37.395 5 36.6778 5ZM45.9 10.0156V27.5078C45.9 28.8906 47.1066 30.0078 48.6 30.0078H54V10.0156H45.9ZM49.95 27.5078C49.2075 27.5078 48.6 26.9453 48.6 26.2578C48.6 25.5703 49.2075 25.0078 49.95 25.0078C50.6925 25.0078 51.3 25.5703 51.3 26.2578C51.3 26.9453 50.6925 27.5078 49.95 27.5078ZM0 30H5.4C6.89344 30 8.1 28.8828 8.1 27.5V10.0156H0V30ZM4.05 25.0078C4.7925 25.0078 5.4 25.5703 5.4 26.2578C5.4 26.9453 4.7925 27.5078 4.05 27.5078C3.3075 27.5078 2.7 26.9453 2.7 26.2578C2.7 25.5625 3.3075 25.0078 4.05 25.0078ZM40.8291 26.4609L28.2319 16.9922L25.7006 19.1406C23.1947 21.2578 19.3556 21.0547 17.1197 18.7969C14.85 16.5 15.0272 12.9453 17.4909 10.8516L24.3928 5H17.3222C16.605 5 15.9216 5.26563 15.4153 5.73438L10.8 10V27.4922H12.3441L19.98 33.8906C22.2919 35.6328 25.6922 35.3047 27.5737 33.1641L27.5906 33.1484L29.1009 34.3594C30.4425 35.375 32.4253 35.1797 33.5138 33.9375L36.1631 30.9219L36.6188 31.2656C37.7747 32.1328 39.4791 31.9766 40.4156 30.8984L41.2172 29.9844C42.1622 28.9062 41.985 27.3359 40.8291 26.4609Z" fill="#28A5FF"/>
</svg>
