<svg width="24" height="30" viewBox="0 0 24 30" fill="none" xmlns="http://www.w3.org/2000/svg">
<path d="M19.445 12.5426C19.1274 13.0615 18.7469 13.5705 18.3068 14.0693C18.0932 14.3121 17.834 14.5093 17.5443 14.6496C17.2545 14.7898 16.9401 14.8703 16.6193 14.8863C16.2983 14.905 15.9767 14.859 15.6734 14.751C15.3701 14.6429 15.091 14.475 14.8524 14.2568C14.577 14.0065 14.3613 13.6963 14.2215 13.3495C14.0816 13.0027 14.0213 12.6284 14.045 12.2546C14.1443 10.6676 13.6347 8.80259 12.5296 6.70661C11.9704 5.65527 11.302 4.75795 10.5046 4.01465C10.4229 4.54587 10.2888 5.06745 10.1042 5.57157C9.65125 6.79867 9.00053 7.94137 8.17849 8.95326C7.60775 9.66162 6.957 10.2999 6.23952 10.8551C5.11452 11.7289 4.18805 12.864 3.56599 14.133C2.92949 15.422 2.59975 16.8438 2.60312 18.2847C2.60312 20.7925 3.57922 23.1497 5.34944 24.9276C7.12628 26.7088 9.48547 27.6865 12.0002 27.6865C14.5149 27.6865 16.8741 26.7088 18.6509 24.9276C20.4211 23.153 21.3972 20.7925 21.3972 18.2847C21.3972 16.9722 21.1292 15.6966 20.6031 14.4979C20.2954 13.7948 19.9083 13.1419 19.445 12.5426Z" fill="white" fill-opacity="0.16"/>
<path d="M22.6577 13.5666C22.0154 12.1037 21.0815 10.7906 19.9147 9.7095L18.9518 8.81553C18.9191 8.78601 18.8798 8.76506 18.8372 8.75452C18.7947 8.74398 18.7502 8.74417 18.7077 8.75508C18.6653 8.76599 18.6261 8.78728 18.5937 8.81709C18.5612 8.84689 18.5365 8.8843 18.5217 8.92602L18.0915 10.1749C17.8235 10.9584 17.3305 11.7586 16.6324 12.5454C16.586 12.5957 16.5331 12.6091 16.4967 12.6124C16.4603 12.6158 16.404 12.6091 16.3544 12.5622C16.3081 12.522 16.2849 12.4617 16.2882 12.4015C16.4107 10.3858 15.8151 8.1124 14.5114 5.63807C13.4327 3.58227 11.9338 1.97848 10.061 0.860172L8.69449 0.0465563C8.51581 -0.0605866 8.2875 0.0800383 8.29743 0.290976L8.37022 1.89812C8.41985 2.99633 8.29412 3.96732 7.99633 4.77424C7.63235 5.76196 7.10956 6.67937 6.44118 7.50303C5.97603 8.07545 5.44883 8.59321 4.86949 9.04656C3.47417 10.1319 2.3396 11.5227 1.55074 13.1146C0.763813 14.7205 0.353904 16.4885 0.352943 18.2809C0.352943 19.8613 0.660664 21.3914 1.26949 22.8345C1.85735 24.2239 2.70571 25.4849 3.76765 26.5477C4.83971 27.6191 6.08383 28.4629 7.47022 29.0488C8.90625 29.6582 10.4283 29.9662 12 29.9662C13.5717 29.9662 15.0938 29.6582 16.5298 29.0521C17.9128 28.4696 19.1704 27.6201 20.2324 26.551C21.3044 25.4796 22.1449 24.2274 22.7305 22.8379C23.3384 21.3987 23.6503 19.8494 23.6471 18.2843C23.6471 16.6504 23.3162 15.0633 22.6577 13.5666ZM18.6507 24.9271C16.8739 26.7084 14.5147 27.6861 12 27.6861C9.4853 27.6861 7.1261 26.7084 5.34927 24.9271C3.57905 23.1492 2.60294 20.7921 2.60294 18.2843C2.60294 16.8278 2.92721 15.4316 3.56581 14.1325C4.18787 12.8635 5.11434 11.7285 6.23934 10.8546C6.95682 10.2994 7.60758 9.66116 8.17831 8.95281C9.00552 7.9316 9.65405 6.79321 10.104 5.57111C10.2886 5.067 10.4228 4.54541 10.5044 4.01419C11.3018 4.75749 11.9702 5.65482 12.5294 6.70615C13.6346 8.80214 14.1441 10.6671 14.0449 12.2541C14.0211 12.6279 14.0815 13.0023 14.2213 13.3491C14.3611 13.6959 14.5768 14.0061 14.8522 14.2564C15.0908 14.4745 15.3699 14.6425 15.6732 14.7505C15.9766 14.8586 16.2981 14.9046 16.6191 14.8858C17.271 14.8524 17.8699 14.5611 18.3066 14.0689C18.7467 13.57 19.1272 13.0611 19.4449 12.5421C19.9081 13.1414 20.2952 13.7943 20.6029 14.4975C21.129 15.6961 21.3971 16.9718 21.3971 18.2843C21.3971 20.7921 20.421 23.1526 18.6507 24.9271Z" fill="white" fill-opacity="0.87"/>
</svg>
