<svg width="25" height="24" viewBox="0 0 25 24" fill="none" xmlns="http://www.w3.org/2000/svg">
<path d="M16.6399 6V17.5C16.6399 19.71 14.8499 21.5 12.6399 21.5C10.4299 21.5 8.63989 19.71 8.63989 17.5V5C8.63989 4.33696 8.90328 3.70107 9.37213 3.23223C9.84097 2.76339 10.4769 2.5 11.1399 2.5C11.8029 2.5 12.4388 2.76339 12.9077 3.23223C13.3765 3.70107 13.6399 4.33696 13.6399 5V15.5C13.6399 16.05 13.1899 16.5 12.6399 16.5C12.0899 16.5 11.6399 16.05 11.6399 15.5V6H10.1399V15.5C10.1399 16.163 10.4033 16.7989 10.8721 17.2678C11.341 17.7366 11.9769 18 12.6399 18C13.3029 18 13.9388 17.7366 14.4077 17.2678C14.8765 16.7989 15.1399 16.163 15.1399 15.5V5C15.1399 2.79 13.3499 1 11.1399 1C8.92989 1 7.13989 2.79 7.13989 5V17.5C7.13989 20.54 9.59989 23 12.6399 23C15.6799 23 18.1399 20.54 18.1399 17.5V6H16.6399Z" fill="#28A5FF"/>
</svg>
