<svg width="20" height="12" viewBox="0 0 20 12" fill="none" xmlns="http://www.w3.org/2000/svg">
<path d="M6.87061 10.868C6.78935 10.9495 6.69284 11.0141 6.58658 11.0582C6.48028 11.1023 6.36632 11.125 6.25122 11.125C6.13613 11.125 6.02217 11.1023 5.91586 11.0582C5.80958 11.0141 5.71304 10.9494 5.63177 10.868L5.63183 10.868L5.72022 10.7797L5.63172 10.8679L6.87061 10.868ZM6.87061 10.868C6.95204 10.7868 7.01666 10.6903 7.06075 10.584C7.10486 10.4777 7.12756 10.3638 7.12756 10.2487C7.12756 10.1336 7.10486 10.0196 7.06075 9.9133C7.01665 9.80703 6.95202 9.7105 6.87057 9.62923C6.87055 9.62921 6.87052 9.62918 6.8705 9.62916L2.98853 5.74866L6.87059 1.86807L6.87061 1.86805C7.03488 1.70378 7.12717 1.48098 7.12717 1.24866C7.12717 1.01635 7.03488 0.793545 6.87061 0.629272C6.70634 0.465 6.48354 0.372714 6.25122 0.372714C6.01891 0.372714 5.79611 0.465 5.63183 0.629272L1.13194 5.12916L6.87061 10.868ZM1.13194 6.36816L1.22022 6.27966L1.13183 6.36805C1.0504 6.28679 0.985789 6.19027 0.941698 6.08402C0.897586 5.97772 0.874881 5.86375 0.874881 5.74866C0.874881 5.63357 0.897586 5.51961 0.941698 5.4133C0.985789 5.30705 1.0504 5.21053 1.13183 5.12927L1.13194 6.36816Z" fill="white" stroke="white" stroke-width="0.25"/>
<path d="M18.8699 6.36677C19.034 6.20267 19.1262 5.98011 19.1262 5.74805C19.1262 5.51598 19.034 5.29342 18.8699 5.12933C18.7058 4.96523 18.4833 4.87305 18.2512 4.87305L2.50122 4.87305C2.26916 4.87305 2.0466 4.96523 1.8825 5.12933C1.71841 5.29342 1.62622 5.51598 1.62622 5.74805C1.62622 5.98011 1.71841 6.20267 1.8825 6.36676C2.04659 6.53086 2.26916 6.62305 2.50122 6.62305L18.2512 6.62305C18.4833 6.62305 18.7058 6.53086 18.8699 6.36677Z" fill="white" stroke="white" stroke-width="0.25"/>
</svg>
