<svg width="16" height="16" viewBox="0 0 16 16" fill="none" xmlns="http://www.w3.org/2000/svg">
<path d="M5.68411 9.71434C5.12487 9.7144 4.57817 9.5486 4.11315 9.23793C3.64814 8.92725 3.28571 8.48565 3.07168 7.96898C2.85766 7.45231 2.80167 6.88377 2.91079 6.33527C3.01991 5.78678 3.28923 5.28296 3.68471 4.88754L6.60239 1.971C7.13266 1.44073 7.85187 1.14282 8.60179 1.14282C9.35171 1.14282 10.0709 1.44073 10.6012 1.971C11.1315 2.50128 11.4294 3.22049 11.4294 3.97041C11.4294 4.72033 11.1315 5.43954 10.6012 5.96981L10.2852 6.28524L9.47664 5.47782L9.79492 5.15954C10.1097 4.84325 10.2862 4.41504 10.2858 3.96879C10.2854 3.52255 10.108 3.09468 9.79263 2.77899C9.47163 2.47264 9.04495 2.30172 8.60122 2.30172C8.15749 2.30172 7.73081 2.47264 7.40981 2.77899L4.49327 5.69553C4.3367 5.85193 4.21249 6.03765 4.12774 6.24208C4.043 6.44651 3.99938 6.66565 3.99938 6.88695C3.99938 7.10825 4.043 7.32738 4.12774 7.53181C4.21249 7.73624 4.3367 7.92196 4.49327 8.07836C4.81428 8.38471 5.24095 8.55564 5.68468 8.55564C6.12841 8.55564 6.55509 8.38471 6.8761 8.07836L7.68409 8.88635C7.42201 9.14972 7.11031 9.35851 6.76702 9.50063C6.42373 9.64275 6.05566 9.71539 5.68411 9.71434Z" fill="#28A5FF"/>
<path d="M10.2554 8.57152C9.69616 8.57157 9.14946 8.40578 8.68444 8.0951C8.21943 7.78443 7.85699 7.34283 7.64297 6.82616C7.42895 6.30949 7.37296 5.74095 7.48208 5.19245C7.5912 4.64396 7.86052 4.14014 8.256 3.74472L8.57199 3.42929L9.37998 4.23786L9.06456 4.55328C8.74866 4.86919 8.57119 5.29765 8.57119 5.74441C8.57119 6.19117 8.74866 6.61963 9.06456 6.93554C9.38557 7.24189 9.81224 7.41281 10.256 7.41281C10.6997 7.41281 11.1264 7.24189 11.4474 6.93554L14.3645 4.01843C14.6798 3.70232 14.8569 3.27406 14.8569 2.82759C14.8569 2.38111 14.6798 1.95285 14.3645 1.63674C14.0435 1.33039 13.6168 1.15947 13.1731 1.15947C12.7294 1.15947 12.3027 1.33039 11.9817 1.63674L11.1737 0.828181C11.704 0.297906 12.4232 0 13.1731 0C13.923 0 14.6422 0.297906 15.1725 0.828181C15.7028 1.35846 16.0007 2.07766 16.0007 2.82759C16.0007 3.57751 15.7028 4.29672 15.1725 4.82699L12.2559 7.74296C11.9939 8.00638 11.6822 8.21524 11.3389 8.35746C10.9956 8.49968 10.6275 8.57243 10.256 8.57152H10.2554Z" fill="#28A5FF"/>
<path d="M12.5713 16H1.14284C0.839836 15.9997 0.549325 15.8792 0.335065 15.6649C0.120806 15.4507 0.000302555 15.1602 0 14.8572V3.42873C0.000302555 3.12572 0.120806 2.83521 0.335065 2.62095C0.549325 2.40669 0.839836 2.28619 1.14284 2.28589H3.42853V3.42873H1.14284V14.8572H12.5713V9.14295H13.7141V14.8572C13.7138 15.1602 13.5933 15.4507 13.3791 15.6649C13.1648 15.8792 12.8743 15.9997 12.5713 16Z" fill="#28A5FF"/>
</svg>
