<svg xmlns="http://www.w3.org/2000/svg" xmlns:xlink="http://www.w3.org/1999/xlink" width="313" height="320" fill="none" xmlns:v="https://vecta.io/nano"><circle cx="208.369" cy="193.735" r="51.168" fill="#caced3"/><path d="M208.37 244.902c-22.877 0-41.422-22.908-41.422-51.167s18.545-51.168 41.422-51.168v102.335z" fill="#474d57"/><path d="M140.185 97.308c-5.05 20.442-25.702 32.83-46.017 27.763S61.452 99.28 66.503 78.893C71.553 58.45 92.148 46.06 112.52 51.13c20.37 5.125 32.716 25.792 27.666 46.178z" fill="#f6921a"/><path d="M119.796 82.435c.73-5.068-3.086-7.77-8.36-9.63l1.683-6.87-4.152-1.07-1.684 6.7-3.31-.788 1.684-6.758-4.153-1.07-1.683 6.87c-.898-.225-1.796-.394-2.638-.62l-5.724-1.464-1.122 4.45 3.03.732c1.684.45 2.02 1.52 1.964 2.42l-1.964 7.828c.112.056.28.056.45.113-.112-.056-.28-.056-.45-.113l-2.75 10.98c-.225.507-.73 1.295-1.908 1.014.056.056-3.03-.732-3.03-.732L83.6 99.217l5.443 1.352 2.974.788-1.74 6.927 4.153 1.07 1.684-6.87a41.11 41.11 0 0 0 3.311.844l-1.684 6.814 4.153 1.07 1.74-6.926c7.126 1.35 12.458.788 14.702-5.632 1.796-5.18-.112-8.166-3.816-10.137 2.694-.563 4.714-2.365 5.275-6.082zm-9.54 13.403c-1.3 5.18-9.99 2.365-12.85 1.69l2.3-9.18c2.862.676 11.897 2.084 10.55 7.5zm1.29-13.46c-1.178 4.73-8.418 2.31-10.774 1.746l2.076-8.335c2.357.563 9.933 1.633 8.698 6.59z" fill="#fff"/><path d="M130.193 115.044c14.828-14.88 14.828-39.007 0-53.888s-38.87-14.88-53.697 0l53.697 53.888z" fill="url(#B)" style="mix-blend-mode:soft-light" opacity=".4"/><path d="M76.493 61.158c-14.828 14.88-14.828 39.008 0 53.89s38.87 14.88 53.698 0l-53.698-53.89z" fill="url(#C)" style="mix-blend-mode:soft-light" opacity=".35"/><path d="M136.49 96.384c-4.545 18.393-23.125 29.54-41.403 24.98S65.652 98.158 70.196 79.816c4.544-18.393 23.074-29.54 41.403-24.98 18.328 4.61 29.436 23.206 24.892 41.548z" fill="#f6921a"/><path d="M118.147 83.003c.656-4.56-2.777-6.992-7.523-8.664l1.514-6.182-3.736-.963-1.515 6.03-2.98-.71 1.515-6.08-3.736-.963-1.515 6.182c-.808-.203-1.616-.355-2.373-.557l-5.15-1.317-1 4.003 2.727.66c1.515.405 1.818 1.368 1.767 2.18l-1.767 7.043c.1.05.252.05.404.1-.1-.05-.252-.05-.404-.1l-2.474 9.88c-.202.456-.656 1.165-1.717.912.05.05-2.726-.66-2.726-.66l-1.868 4.307 4.898 1.216 2.676.71-1.565 6.232 3.736.963 1.515-6.182a36.49 36.49 0 0 0 2.979.76l-1.515 6.13 3.736.963 1.566-6.232c6.412 1.216 11.208.71 13.228-5.067 1.616-4.662-.1-7.347-3.433-9.12 2.423-.507 4.24-2.128 4.746-5.472zm-8.584 12.06c-1.16 4.662-8.987 2.128-11.562 1.52l2.07-8.26c2.575.608 10.704 1.875 9.492 6.74zm1.162-12.1c-1.06 4.256-7.574 2.077-9.695 1.57l1.87-7.5c2.12.507 8.937 1.47 7.826 5.928z" fill="#fff"/><path d="M74.06 105.763c-9.746-16.23-4.462-37.298 11.676-47.044s37.166-4.48 46.876 11.715c9.746 16.23 4.497 37.263-11.676 47.043-16.21 9.746-37.165 4.48-46.876-11.715z" fill="url(#D)" style="mix-blend-mode:soft-light" opacity=".35"/><path d="M132.63 70.437c9.746 16.23 4.462 37.297-11.676 47.043s-37.165 4.48-46.876-11.715c-9.746-16.23-4.498-37.262 11.676-47.043 16.21-9.746 37.165-4.48 46.876 11.715z" fill="url(#E)" style="mix-blend-mode:hard-light" opacity=".2"/><path d="M134.188 95.81c-4.228 17.115-21.518 27.488-38.526 23.244S68.27 97.46 72.5 80.39c4.228-17.115 21.472-27.488 38.526-23.245 17.055 4.29 27.392 21.594 23.163 38.662z" fill="#f6921a"/><path d="M117.12 83.358c.61-4.243-2.584-6.507-7-8.062l1.41-5.752-3.477-.896-1.41 5.61-2.772-.66 1.41-5.658-3.477-.896-1.41 5.752c-.752-.19-1.504-.33-2.208-.52l-4.792-1.226-.94 3.725L95 75.39c1.41.377 1.692 1.273 1.645 2.027L95 83.97c.094.047.235.047.376.094-.094-.047-.235-.047-.376-.094l-2.302 9.194c-.188.424-.61 1.084-1.597.85.047.047-2.537-.613-2.537-.613l-1.738 4.008 4.557 1.132 2.5.66-1.456 5.8 3.477.896 1.41-5.752c.94.283 1.88.518 2.772.707l-1.41 5.705 3.477.896 1.457-5.8c5.967 1.132 10.43.66 12.31-4.715 1.504-4.338-.093-6.837-3.194-8.487 2.255-.47 3.946-1.98 4.416-5.092zm-7.987 11.22c-1.08 4.338-8.363 1.98-10.76 1.415l1.926-7.685c2.396.566 9.96 1.745 8.833 6.27zm1.08-11.27c-.986 3.96-7.047 1.933-9.02 1.462l1.738-6.978c1.973.47 8.316 1.367 7.282 5.516z" fill="#fff"/><path d="M130.597 71.652c9.076 15.114 4.155 34.733-10.872 43.808s-34.61 4.172-43.652-10.91c-9.076-15.114-4.188-34.7 10.872-43.808 15.094-9.075 34.6-4.17 43.652 10.91z" fill="url(#F)" style="mix-blend-mode:soft-light" opacity=".3"/><path d="M76.058 104.582c-9.073-15.116-4.143-34.744 10.893-43.828s34.624-4.186 43.664 10.897c9.074 15.116 4.177 34.71-10.893 43.83a31.77 31.77 0 0 1-43.664-10.897z" fill="url(#G)" style="mix-blend-mode:hard-light" opacity=".1"/><path d="M125.872 110.66c12.415-12.46 12.415-32.66 0-45.118s-32.542-12.46-44.957 0l44.957 45.118z" fill="url(#H)" style="mix-blend-mode:soft-light" opacity=".3"/><path fill="#5e6673" d="M224.312 201.18l11.133-11.133-70.504-70.504-11.133 11.133z"/><path fill="#76808f" d="M209.658 201.203l25.527-25.527-55.975-55.975-25.527 25.527z"/><circle r="18.051" transform="matrix(.707107 .707107 .707107 -.707107 166.892 132.917)" fill="#aeb4bc"/><path fill-rule="evenodd" d="M151.732 132.96c3.02 5.223 8.667 8.736 15.134 8.736s12.113-3.513 15.135-8.736c-3.022-5.222-8.668-8.735-15.135-8.735s-12.113 3.513-15.134 8.735z" fill="#fbfafa"/><circle r="5.627" transform="matrix(1 0 0 -1 164.738 130.645)" fill="#14151a"/><ellipse cx="208.369" cy="193.735" rx="27.073" ry="51.168" fill="#caced3"/><path fill="#fff" d="M157.202 193.058h102.335V264.8H157.202z"/><path fill="#aeb4bc" d="M152.463 193.058h111.81v10.423h-111.81z"/><mask id="A" mask-type="alpha" maskUnits="userSpaceOnUse" x="0" y="0" width="313" height="320"><rect width="313" height="320" rx="16" fill="#2b2f36"/></mask><g mask="url(#A)"><g fill="#0b0e11"><path transform="matrix(-.707107 .707107 .707107 .707107 174.612 228.946)" d="M0 0h133.74v133.74H0z"/><path transform="matrix(0 1 1 0 100.619 228.946)" d="M0 0h73.367v73.367H0z"/><path transform="matrix(-.707107 .707107 .707107 .707107 100.568 228.946)" d="M0 0h133.74v133.74H0z"/><path d="M87 254h273.977v44.94H87z"/><path transform="rotate(60 320.13 189.691)" d="M320.13 189.69h133.74v133.74H320.13z"/></g></g><path d="M217.73 56.696l3.16-3.16 3.16 3.16-3.16 3.16zM70.568 150.05l5.437-5.437 5.437 5.437-5.437 5.437zM43.63 134.914l3.16-3.16 3.16 3.16-3.16 3.16zm6.363-73.12l1.24-1.24 1.24 1.24-1.24 1.24zm127.242 14.484l1.24-1.24 1.24 1.24-1.24 1.24zm75.263 2.436l1.24-1.24 1.24 1.24-1.24 1.24zM69.08 38.24L70.32 37l1.24 1.24-1.24 1.24zM32.802 56.617l1.613-1.613 1.613 1.613-1.613 1.613zm230.66 80.27l1.613-1.613 1.613 1.613-1.613 1.613z" fill="#f8d33a"/><defs><linearGradient id="B" x1="89.92" y1="47.684" x2="143.808" y2="101.38" xlink:href="#I"><stop stop-color="#fff"/><stop offset="1" stop-color="#fff" stop-opacity="0"/></linearGradient><linearGradient id="C" x1="116.766" y1="128.519" x2="62.878" y2="74.822" xlink:href="#I"><stop stop-color="#fff"/><stop offset="1" stop-color="#fff" stop-opacity="0"/></linearGradient><linearGradient id="D" x1="127.491" y1="112.343" x2="79.005" y2="64.03" xlink:href="#I"><stop stop-color="#fff"/><stop offset=".214" stop-color="#fff" stop-opacity=".47"/><stop offset="1" stop-color="#fff" stop-opacity="0"/></linearGradient><linearGradient id="E" x1="79.199" y1="63.857" x2="127.684" y2="112.17" xlink:href="#I"><stop stop-color="#270000" stop-opacity=".65"/><stop offset=".214" stop-color="#420000" stop-opacity=".33"/><stop offset="1" stop-opacity="0"/></linearGradient><linearGradient id="F" x1="80.841" y1="65.525" x2="125.991" y2="110.514" xlink:href="#I"><stop stop-color="#fff"/><stop offset=".177" stop-color="#fff" stop-opacity=".61"/><stop offset=".51" stop-color="#fff" stop-opacity="0"/></linearGradient><linearGradient id="G" x1="125.831" y1="110.693" x2="80.68" y2="65.703" xlink:href="#I"><stop stop-color="#270000" stop-opacity=".65"/><stop offset=".214" stop-color="#420000" stop-opacity=".33"/><stop offset="1" stop-opacity="0"/></linearGradient><linearGradient id="H" x1="92.155" y1="54.262" x2="137.272" y2="99.219" xlink:href="#I"><stop stop-color="#fff"/><stop offset="1" stop-color="#fff" stop-opacity="0"/></linearGradient><linearGradient id="I" gradientUnits="userSpaceOnUse"/></defs></svg>