<svg width="23" height="14" viewBox="0 0 23 14" fill="none" xmlns="http://www.w3.org/2000/svg">
<path fill-rule="evenodd" clip-rule="evenodd" d="M15.4353 13.7217C15.3471 13.6337 15.2771 13.5291 15.2293 13.414C15.1816 13.2989 15.157 13.1756 15.157 13.0509C15.157 12.9263 15.1816 12.8029 15.2293 12.6878C15.2771 12.5727 15.3471 12.4682 15.4353 12.3802L20.4507 7.36673L15.4353 2.35326C15.3472 2.26517 15.2774 2.1606 15.2297 2.04552C15.182 1.93043 15.1575 1.80709 15.1575 1.68252C15.1575 1.55795 15.182 1.4346 15.2297 1.31952C15.2774 1.20443 15.3472 1.09986 15.4353 1.01178C15.5234 0.923699 15.628 0.853828 15.743 0.806158C15.8581 0.758489 15.9815 0.733954 16.106 0.733954C16.2306 0.733954 16.354 0.758489 16.469 0.806158C16.5841 0.853828 16.6887 0.923699 16.7768 1.01178L22.461 6.69599C22.5492 6.78399 22.6192 6.88854 22.667 7.00363C22.7147 7.11873 22.7393 7.24212 22.7393 7.36673C22.7393 7.49134 22.7147 7.61473 22.667 7.72982C22.6192 7.84492 22.5492 7.94946 22.461 8.03747L16.7768 13.7217C16.6888 13.8099 16.5842 13.8799 16.4691 13.9277C16.354 13.9754 16.2307 14 16.106 14C15.9814 14 15.858 13.9754 15.7429 13.9277C15.6279 13.8799 15.5233 13.8099 15.4353 13.7217Z" fill="#28A5FF"/>
<path fill-rule="evenodd" clip-rule="evenodd" d="M21.79 7.3666C21.79 7.61785 21.6902 7.85882 21.5126 8.03649C21.3349 8.21415 21.0939 8.31396 20.8427 8.31396L0.947933 8.31396C0.696676 8.31396 0.455708 8.21415 0.278042 8.03649C0.100376 7.85882 0.000564575 7.61785 0.000564575 7.3666C0.000564575 7.11534 0.100376 6.87437 0.278042 6.6967C0.455708 6.51904 0.696676 6.41923 0.947933 6.41923L20.8427 6.41923C21.0939 6.41923 21.3349 6.51904 21.5126 6.6967C21.6902 6.87437 21.79 7.11534 21.79 7.3666Z" fill="#28A5FF"/>
</svg>
