<?xml version="1.0" encoding="UTF-8"?><svg xmlns="http://www.w3.org/2000/svg" xmlns:xlink="http://www.w3.org/1999/xlink" contentScriptType="text/ecmascript" width="31.5" zoomAndPan="magnify" contentStyleType="text/css" viewBox="0 0 31.5 31.499999" height="31.499999" preserveAspectRatio="xMidYMid meet" version="1.0"><defs><clipPath id="clip-0"><path d="M 0 0 L 31.007812 0 L 31.007812 31.007812 L 0 31.007812 Z M 0 0 " clip-rule="nonzero"/></clipPath><clipPath id="clip-1"><path d="M 10 0 L 31.007812 0 L 31.007812 30.75 L 10 30.75 Z M 10 0 " clip-rule="nonzero"/></clipPath><clipPath id="clip-2"><path d="M 31 24 L 31.007812 24 L 31.007812 25 L 31 25 Z M 31 24 " clip-rule="nonzero"/></clipPath><clipPath id="clip-3"><path d="M 10 0 L 31.007812 0 L 31.007812 30.75 L 10 30.75 Z M 10 0 " clip-rule="nonzero"/></clipPath></defs><g clip-path="url(#clip-0)"><path fill="rgb(100%, 100%, 100%)" d="M 0 0 L 31.5 0 L 31.5 39 L 0 39 Z M 0 0 " fill-opacity="1" fill-rule="nonzero"/><path fill="rgb(100%, 100%, 100%)" d="M 0 0 L 31.5 0 L 31.5 31.5 L 0 31.5 Z M 0 0 " fill-opacity="1" fill-rule="nonzero"/><path fill="rgb(100%, 100%, 100%)" d="M 0 0 L 31.5 0 L 31.5 31.5 L 0 31.5 Z M 0 0 " fill-opacity="1" fill-rule="nonzero"/></g><path fill="rgb(84.709167%, 57.649231%, 41.178894%)" d="M 17.578125 8.222656 C 17.195312 7.730469 16.4375 7.675781 15.886719 8.109375 L 11.9375 11.1875 C 11.382812 11.617188 11.246094 12.371094 11.625 12.867188 C 12.007812 13.359375 12.765625 13.414062 13.320312 12.980469 L 17.265625 9.902344 C 17.820312 9.472656 17.960938 8.71875 17.578125 8.222656 " fill-opacity="1" fill-rule="nonzero"/><path fill="rgb(84.709167%, 57.649231%, 41.178894%)" d="M 23.347656 13.382812 C 23.679688 12.886719 23.476562 12.164062 22.898438 11.769531 L 17.453125 8.066406 C 16.871094 7.671875 16.128906 7.757812 15.796875 8.257812 C 15.464844 8.753906 15.667969 9.476562 16.25 9.871094 L 21.695312 13.574219 C 22.273438 13.96875 23.015625 13.882812 23.347656 13.382812 " fill-opacity="1" fill-rule="nonzero"/><path fill="rgb(97.24884%, 70.979309%, 54.119873%)" d="M 22.429688 12.960938 C 22.238281 12.789062 22.003906 12.585938 21.988281 12.347656 C 21.996094 12.246094 22.003906 12.042969 22.105469 11.890625 C 22.203125 11.742188 22.332031 11.59375 22.5 11.503906 L 22.898438 11.769531 C 23.261719 12.015625 23.476562 12.394531 23.503906 12.765625 C 23.386719 12.898438 23.269531 13.023438 23.21875 13.085938 C 22.929688 13.421875 22.847656 13.335938 22.429688 12.960938 " fill-opacity="1" fill-rule="nonzero"/><path fill="rgb(89.019775%, 60.389709%, 43.139648%)" d="M 17.890625 6.460938 C 17.382812 5.804688 16.375 5.734375 15.640625 6.308594 L 10.394531 10.398438 C 9.660156 10.96875 9.476562 11.96875 9.980469 12.628906 C 10.488281 13.285156 11.496094 13.355469 12.230469 12.78125 L 17.476562 8.691406 C 18.210938 8.117188 18.394531 7.121094 17.890625 6.460938 " fill-opacity="1" fill-rule="nonzero"/><path fill="rgb(89.019775%, 60.389709%, 43.139648%)" d="M 25.554688 13.316406 C 25.996094 12.652344 25.726562 11.695312 24.957031 11.171875 L 17.722656 6.25 C 16.949219 5.726562 15.964844 5.84375 15.523438 6.503906 C 15.082031 7.167969 15.351562 8.128906 16.125 8.648438 L 23.355469 13.570312 C 24.128906 14.09375 25.113281 13.980469 25.554688 13.316406 " fill-opacity="1" fill-rule="nonzero"/><path fill="rgb(97.24884%, 70.979309%, 54.119873%)" d="M 24.335938 12.757812 C 24.078125 12.527344 23.769531 12.257812 23.746094 11.941406 C 23.757812 11.804688 23.769531 11.535156 23.90625 11.332031 C 24.035156 11.136719 24.207031 10.9375 24.429688 10.816406 L 24.957031 11.171875 C 25.441406 11.5 25.726562 12.003906 25.761719 12.496094 C 25.605469 12.671875 25.449219 12.839844 25.382812 12.921875 C 25 13.371094 24.894531 13.253906 24.335938 12.757812 " fill-opacity="1" fill-rule="nonzero"/><path fill="rgb(93.328857%, 63.529968%, 45.489502%)" d="M 18.066406 4.71875 C 17.496094 4.113281 16.488281 4.144531 15.8125 4.789062 L 10.996094 9.382812 C 10.324219 10.027344 10.238281 11.039062 10.804688 11.644531 C 11.375 12.25 12.382812 12.21875 13.058594 11.574219 L 17.875 6.980469 C 18.550781 6.335938 18.636719 5.320312 18.066406 4.71875 " fill-opacity="1" fill-rule="nonzero"/><path fill="rgb(93.328857%, 63.529968%, 45.489502%)" d="M 26.371094 10.769531 C 26.746094 10.066406 26.382812 9.140625 25.5625 8.695312 L 17.878906 4.523438 C 17.058594 4.082031 16.089844 4.292969 15.71875 4.996094 C 15.34375 5.703125 15.707031 6.628906 16.527344 7.070312 L 24.207031 11.246094 C 25.027344 11.6875 25.996094 11.472656 26.371094 10.769531 " fill-opacity="1" fill-rule="nonzero"/><path fill="rgb(90.979004%, 58.428955%, 40.388489%)" d="M 22.6875 8.425781 C 22.6875 8.425781 22.730469 8.324219 22.8125 8.175781 C 22.839844 8.179688 22.867188 8.183594 22.898438 8.183594 C 22.777344 8.332031 22.6875 8.425781 22.6875 8.425781 " fill-opacity="1" fill-rule="nonzero"/><path fill="rgb(90.979004%, 58.428955%, 40.388489%)" d="M 22.054688 8.238281 C 22.054688 8.238281 22.074219 8.203125 22.105469 8.140625 C 22.125 8.105469 22.148438 8.0625 22.175781 8.011719 L 22.234375 8.027344 C 22.191406 8.082031 22.152344 8.121094 22.125 8.15625 C 22.082031 8.207031 22.054688 8.238281 22.054688 8.238281 " fill-opacity="1" fill-rule="nonzero"/><path fill="rgb(97.24884%, 70.979309%, 54.119873%)" d="M 25.101562 10.335938 C 24.824219 10.132812 24.488281 9.898438 24.4375 9.582031 C 24.433594 9.445312 24.417969 9.179688 24.535156 8.960938 C 24.640625 8.753906 24.792969 8.539062 25.003906 8.398438 L 25.5625 8.695312 C 26.078125 8.976562 26.414062 9.445312 26.496094 9.933594 C 26.355469 10.125 26.21875 10.304688 26.160156 10.394531 C 25.824219 10.878906 25.707031 10.773438 25.101562 10.335938 " fill-opacity="1" fill-rule="nonzero"/><path fill="rgb(97.648621%, 66.268921%, 47.44873%)" d="M 17.210938 3.484375 C 16.542969 2.996094 15.554688 3.214844 15.007812 3.972656 L 11.113281 9.378906 C 10.566406 10.136719 10.667969 11.144531 11.339844 11.636719 C 12.007812 12.125 12.992188 11.90625 13.539062 11.148438 L 17.433594 5.742188 C 17.980469 4.984375 17.878906 3.972656 17.210938 3.484375 " fill-opacity="1" fill-rule="nonzero"/><path fill="rgb(97.648621%, 66.268921%, 47.44873%)" d="M 24.492188 7.230469 C 24.730469 6.472656 24.203125 5.625 23.316406 5.34375 L 16.992188 3.328125 C 16.105469 3.046875 15.191406 3.433594 14.953125 4.195312 C 14.714844 4.953125 15.238281 5.800781 16.125 6.082031 L 22.453125 8.097656 C 23.339844 8.378906 24.25 7.992188 24.492188 7.230469 " fill-opacity="1" fill-rule="nonzero"/><path fill="rgb(97.24884%, 70.979309%, 54.119873%)" d="M 23.164062 7.039062 C 22.855469 6.894531 22.480469 6.722656 22.371094 6.421875 C 22.34375 6.289062 22.28125 6.027344 22.355469 5.792969 C 22.421875 5.570312 22.53125 5.328125 22.714844 5.152344 L 23.316406 5.34375 C 23.875 5.523438 24.289062 5.921875 24.460938 6.386719 C 24.359375 6.597656 24.257812 6.800781 24.214844 6.902344 C 23.972656 7.441406 23.835938 7.359375 23.164062 7.039062 " fill-opacity="1" fill-rule="nonzero"/><g clip-path="url(#clip-1)"><path fill="rgb(41.178894%, 67.83905%, 21.569824%)" d="M 17.042969 8.777344 C 13 11.273438 10.636719 16.886719 10.28125 21.507812 C 9.953125 25.753906 10.957031 30.75 16.230469 30.078125 C 18.117188 29.835938 20.089844 29.5 21.917969 29.171875 C 23.847656 28.824219 25.5625 28.226562 27.625 28.273438 C 28.683594 28.300781 29.445312 28.371094 30.347656 27.722656 C 31.460938 26.917969 31.164062 26.144531 31.171875 24.878906 C 31.191406 22.273438 30.882812 19.765625 30.167969 17.289062 C 29.09375 13.578125 26.445312 10.53125 23.183594 8.738281 C 22.769531 8.511719 21.261719 8.132812 21.027344 7.75 C 20.59375 7.042969 21.472656 6.398438 21.804688 5.773438 C 22.375 4.683594 23.722656 2.164062 23.136719 0.878906 C 22.773438 0.0820312 22.222656 0.00390625 21.5 0.222656 C 20.632812 0.488281 20.574219 0.761719 19.550781 0.695312 C 18.332031 0.617188 15.726562 0.535156 14.605469 0.941406 C 13.964844 1.171875 13.203125 2.332031 12.9375 2.945312 C 12.386719 4.21875 12.882812 3.945312 13.84375 4.523438 C 15.039062 5.242188 18.054688 8.152344 17.042969 8.777344 " fill-opacity="1" fill-rule="nonzero"/></g><path fill="rgb(19.60907%, 31.759644%, 9.01947%)" d="M 21.125 22.675781 C 21.445312 22.597656 21.695312 22.441406 21.882812 22.207031 C 22.070312 21.972656 22.152344 21.710938 22.128906 21.417969 C 22.109375 21.152344 22.007812 20.933594 21.824219 20.753906 C 21.636719 20.578125 21.347656 20.453125 20.949219 20.382812 L 21.125 22.675781 M 19.710938 16.488281 C 19.460938 16.582031 19.269531 16.730469 19.132812 16.933594 C 18.996094 17.132812 18.933594 17.347656 18.953125 17.574219 C 18.96875 17.78125 19.050781 17.96875 19.203125 18.136719 C 19.355469 18.304688 19.574219 18.433594 19.863281 18.523438 L 19.710938 16.488281 M 20.179688 22.667969 L 19.992188 20.199219 C 19.128906 20.046875 18.480469 19.761719 18.050781 19.34375 C 17.625 18.929688 17.386719 18.402344 17.335938 17.769531 C 17.289062 17.125 17.472656 16.566406 17.886719 16.09375 C 18.300781 15.625 18.875 15.328125 19.613281 15.203125 L 19.570312 14.621094 L 20.511719 14.546875 L 20.554688 15.132812 C 21.246094 15.152344 21.808594 15.324219 22.242188 15.644531 C 22.675781 15.964844 22.972656 16.414062 23.125 16.996094 L 21.5 17.3125 C 21.367188 16.859375 21.082031 16.5625 20.652344 16.433594 L 20.824219 18.734375 C 21.882812 18.910156 22.613281 19.1875 23.019531 19.5625 C 23.425781 19.941406 23.65625 20.445312 23.703125 21.082031 C 23.757812 21.792969 23.566406 22.410156 23.128906 22.933594 C 22.691406 23.453125 22.054688 23.804688 21.222656 23.976562 L 21.304688 25.078125 L 20.363281 25.152344 L 20.285156 24.078125 C 19.53125 24.054688 18.902344 23.847656 18.40625 23.457031 C 17.90625 23.070312 17.5625 22.496094 17.375 21.730469 L 19.054688 21.4375 C 19.148438 21.746094 19.296875 22.007812 19.503906 22.222656 C 19.710938 22.433594 19.9375 22.582031 20.179688 22.667969 " fill-opacity="1" fill-rule="nonzero"/><g clip-path="url(#clip-2)"><path fill="rgb(82.749939%, 82.348633%, 82.348633%)" d="M 31.171875 24.9375 C 31.171875 24.917969 31.171875 24.898438 31.171875 24.878906 C 31.175781 24.589844 31.171875 24.304688 31.167969 24.019531 C 31.171875 24.304688 31.175781 24.589844 31.171875 24.878906 C 31.171875 24.898438 31.171875 24.917969 31.171875 24.9375 " fill-opacity="1" fill-rule="nonzero"/></g><path fill="rgb(82.749939%, 82.348633%, 82.348633%)" d="M 21.5 0.222656 C 21.515625 0.21875 21.527344 0.214844 21.542969 0.210938 C 21.527344 0.214844 21.515625 0.21875 21.5 0.222656 " fill-opacity="1" fill-rule="nonzero"/><g clip-path="url(#clip-3)"><path fill="rgb(34.118652%, 55.688477%, 17.248535%)" d="M 15.304688 30.136719 C 11.359375 30.136719 10.226562 26.515625 10.226562 22.921875 C 10.226562 22.449219 10.246094 21.972656 10.28125 21.507812 C 10.636719 16.886719 13 11.273438 17.042969 8.777344 C 17.183594 8.6875 17.246094 8.558594 17.246094 8.394531 C 17.246094 8.214844 17.175781 8.003906 17.050781 7.765625 C 16.945312 7.566406 16.800781 7.351562 16.632812 7.128906 C 16.601562 7.085938 16.566406 7.042969 16.53125 6.996094 C 15.917969 6.226562 15.03125 5.398438 14.355469 4.878906 C 14.164062 4.734375 13.988281 4.609375 13.84375 4.523438 C 13.15625 4.113281 12.707031 4.132812 12.707031 3.714844 C 12.707031 3.546875 12.78125 3.308594 12.9375 2.945312 C 13.203125 2.332031 13.964844 1.171875 14.605469 0.941406 C 15.273438 0.699219 16.457031 0.632812 17.566406 0.632812 C 18.328125 0.632812 19.054688 0.664062 19.550781 0.695312 C 19.65625 0.703125 19.75 0.707031 19.835938 0.707031 C 20.597656 0.707031 20.722656 0.460938 21.5 0.222656 C 21.515625 0.21875 21.527344 0.214844 21.542969 0.210938 C 21.746094 0.152344 21.933594 0.117188 22.109375 0.117188 C 22.234375 0.117188 22.355469 0.136719 22.46875 0.175781 C 20.957031 0.78125 19.765625 1.175781 18.238281 1.175781 C 17.984375 1.175781 17.71875 1.164062 17.445312 1.144531 C 17.210938 1.125 16.984375 1.113281 16.769531 1.113281 C 15.882812 1.113281 15.125 1.308594 14.441406 2.027344 C 13.773438 2.730469 14.304688 3.789062 15.125 4.011719 C 16.296875 4.328125 17.414062 4.648438 18.203125 5.640625 C 19.035156 6.6875 18.667969 8.21875 18.183594 9.308594 C 17.753906 10.265625 16.800781 11.0625 16.148438 11.863281 C 15.496094 12.667969 15.09375 13.589844 14.753906 14.558594 C 13.640625 17.734375 12.222656 22.203125 15.878906 24.152344 C 16.65625 24.566406 17.511719 24.730469 18.378906 24.730469 C 19.027344 24.730469 19.683594 24.636719 20.316406 24.496094 L 20.363281 25.152344 L 21.304688 25.078125 L 21.242188 24.246094 C 21.285156 24.234375 21.324219 24.222656 21.367188 24.207031 C 22.914062 23.714844 24.75 21.917969 26.445312 21.917969 C 26.792969 21.917969 27.132812 21.992188 27.464844 22.167969 C 28.488281 22.714844 29.652344 22.9375 30.863281 22.9375 C 30.949219 22.9375 31.035156 22.9375 31.125 22.9375 C 31.144531 23.296875 31.160156 23.65625 31.167969 24.019531 C 31.171875 24.304688 31.175781 24.589844 31.171875 24.878906 C 31.171875 24.898438 31.171875 24.917969 31.171875 24.9375 C 31.171875 25.34375 31.203125 25.699219 31.203125 26.023438 C 31.203125 26.675781 31.082031 27.191406 30.347656 27.722656 C 29.671875 28.207031 29.078125 28.289062 28.375 28.289062 C 28.136719 28.289062 27.890625 28.28125 27.625 28.273438 C 27.542969 28.273438 27.460938 28.273438 27.382812 28.273438 C 25.425781 28.273438 23.773438 28.839844 21.917969 29.171875 C 20.089844 29.5 18.117188 29.835938 16.230469 30.078125 C 15.90625 30.117188 15.597656 30.136719 15.304688 30.136719 " fill-opacity="1" fill-rule="nonzero"/></g><path fill="rgb(16.468811%, 27.059937%, 7.449341%)" d="M 20.363281 25.152344 L 20.316406 24.496094 C 20.632812 24.425781 20.941406 24.339844 21.242188 24.246094 L 21.304688 25.078125 L 20.363281 25.152344 " fill-opacity="1" fill-rule="nonzero"/><path fill="rgb(49.01886%, 34.118652%, 15.689087%)" d="M 15.804688 9.199219 C 16.023438 9.238281 16.238281 9.253906 16.449219 9.253906 C 16.964844 9.253906 17.441406 9.160156 17.882812 9.074219 C 18.324219 8.988281 18.734375 8.914062 19.121094 8.914062 C 19.292969 8.914062 19.460938 8.929688 19.632812 8.964844 C 19.632812 8.964844 19.667969 8.972656 19.714844 8.984375 C 19.796875 9.003906 19.917969 9.039062 20.066406 9.078125 C 20.285156 9.132812 20.558594 9.199219 20.839844 9.253906 C 21.125 9.304688 21.414062 9.347656 21.691406 9.347656 C 21.792969 9.347656 21.890625 9.34375 21.992188 9.328125 C 22.070312 9.316406 22.144531 9.296875 22.222656 9.269531 C 22.285156 9.246094 22.34375 9.21875 22.40625 9.179688 C 22.496094 9.121094 22.589844 9.035156 22.652344 8.917969 C 22.71875 8.804688 22.75 8.671875 22.75 8.550781 C 22.75 8.503906 22.746094 8.457031 22.738281 8.414062 C 22.695312 8.140625 22.4375 7.953125 22.167969 8 C 21.894531 8.042969 21.710938 8.300781 21.753906 8.570312 L 21.890625 8.550781 L 21.753906 8.550781 C 21.753906 8.5625 21.753906 8.566406 21.753906 8.570312 L 21.890625 8.550781 L 21.753906 8.550781 L 21.992188 8.550781 L 21.765625 8.480469 C 21.757812 8.507812 21.753906 8.53125 21.753906 8.550781 L 21.992188 8.550781 L 21.765625 8.480469 L 22.023438 8.558594 L 21.84375 8.355469 C 21.8125 8.382812 21.777344 8.429688 21.765625 8.480469 L 22.023438 8.558594 L 21.84375 8.355469 L 21.953125 8.480469 L 21.882812 8.328125 C 21.878906 8.332031 21.863281 8.339844 21.84375 8.355469 L 21.953125 8.480469 L 21.882812 8.328125 L 21.898438 8.359375 L 21.882812 8.328125 L 21.898438 8.359375 L 21.882812 8.328125 L 21.871094 8.332031 C 21.84375 8.339844 21.777344 8.347656 21.691406 8.347656 C 21.558594 8.347656 21.386719 8.332031 21.199219 8.300781 C 20.921875 8.253906 20.621094 8.183594 20.375 8.121094 C 20.25 8.089844 20.140625 8.0625 20.050781 8.039062 C 20.003906 8.027344 19.964844 8.015625 19.929688 8.003906 C 19.894531 7.996094 19.863281 7.988281 19.832031 7.980469 C 19.585938 7.933594 19.347656 7.914062 19.121094 7.914062 C 18.605469 7.914062 18.136719 8.007812 17.695312 8.09375 C 17.253906 8.179688 16.839844 8.253906 16.449219 8.253906 C 16.289062 8.253906 16.132812 8.242188 15.976562 8.214844 C 15.707031 8.167969 15.449219 8.347656 15.398438 8.621094 C 15.351562 8.890625 15.53125 9.152344 15.804688 9.199219 " fill-opacity="1" fill-rule="nonzero"/><path fill="rgb(43.919373%, 30.589294%, 13.729858%)" d="M 16.574219 8.535156 C 16.910156 8.328125 17.242188 8.09375 17.566406 7.921875 C 17.730469 7.835938 17.886719 7.765625 18.039062 7.714844 C 18.1875 7.667969 18.328125 7.644531 18.460938 7.644531 C 18.570312 7.644531 18.671875 7.660156 18.78125 7.695312 C 18.964844 7.757812 19.167969 7.878906 19.394531 8.03125 C 19.621094 8.179688 19.875 8.359375 20.1875 8.496094 C 20.394531 8.582031 20.601562 8.617188 20.792969 8.617188 C 20.953125 8.617188 21.097656 8.59375 21.234375 8.566406 C 21.367188 8.539062 21.492188 8.503906 21.605469 8.472656 C 21.695312 8.449219 21.777344 8.421875 21.839844 8.410156 C 21.902344 8.394531 21.953125 8.386719 21.976562 8.386719 C 21.992188 8.386719 22 8.386719 22 8.390625 L 22 8.386719 L 22 8.390625 L 22 8.386719 L 22 8.390625 L 22.003906 8.390625 C 22.226562 8.550781 22.539062 8.496094 22.695312 8.269531 C 22.855469 8.042969 22.800781 7.730469 22.574219 7.570312 C 22.480469 7.503906 22.375 7.457031 22.273438 7.425781 C 22.167969 7.394531 22.070312 7.386719 21.976562 7.386719 C 21.835938 7.386719 21.714844 7.410156 21.609375 7.433594 C 21.503906 7.460938 21.414062 7.488281 21.34375 7.507812 C 21.226562 7.539062 21.125 7.566406 21.03125 7.585938 C 20.941406 7.605469 20.859375 7.613281 20.792969 7.613281 C 20.710938 7.613281 20.648438 7.601562 20.578125 7.574219 C 20.386719 7.492188 20.179688 7.351562 19.941406 7.195312 C 19.703125 7.035156 19.433594 6.859375 19.09375 6.746094 C 18.878906 6.675781 18.667969 6.644531 18.460938 6.644531 C 18.207031 6.644531 17.960938 6.691406 17.738281 6.761719 C 17.398438 6.871094 17.09375 7.035156 16.8125 7.203125 C 16.535156 7.371094 16.277344 7.542969 16.054688 7.679688 C 15.820312 7.820312 15.746094 8.128906 15.890625 8.367188 C 16.03125 8.601562 16.339844 8.675781 16.574219 8.535156 " fill-opacity="1" fill-rule="nonzero"/><path fill="rgb(40.779114%, 28.239441%, 12.548828%)" d="M 21.835938 6.984375 C 21.617188 6.902344 21.371094 6.816406 21.105469 6.75 C 20.84375 6.683594 20.566406 6.636719 20.277344 6.636719 C 20.15625 6.636719 20.035156 6.644531 19.914062 6.664062 C 19.667969 6.703125 19.449219 6.792969 19.261719 6.898438 C 18.980469 7.058594 18.761719 7.25 18.566406 7.402344 C 18.371094 7.5625 18.203125 7.679688 18.046875 7.738281 C 17.96875 7.769531 17.855469 7.796875 17.722656 7.816406 C 17.527344 7.851562 17.285156 7.871094 17.027344 7.914062 C 16.902344 7.9375 16.769531 7.96875 16.632812 8.011719 C 16.5 8.058594 16.363281 8.117188 16.234375 8.207031 C 16.191406 8.234375 16.164062 8.257812 16.132812 8.285156 C 16.082031 8.328125 16.027344 8.378906 15.96875 8.4375 C 15.882812 8.523438 15.792969 8.617188 15.710938 8.710938 C 15.671875 8.761719 15.636719 8.808594 15.597656 8.867188 C 15.578125 8.898438 15.558594 8.929688 15.539062 8.976562 C 15.527344 9 15.519531 9.027344 15.507812 9.0625 C 15.5 9.097656 15.488281 9.144531 15.488281 9.207031 C 15.488281 9.238281 15.492188 9.273438 15.503906 9.320312 C 15.5625 9.589844 15.828125 9.761719 16.097656 9.699219 C 16.367188 9.640625 16.535156 9.371094 16.472656 9.101562 L 16.011719 9.207031 L 16.484375 9.207031 C 16.484375 9.179688 16.484375 9.144531 16.472656 9.101562 L 16.011719 9.207031 L 16.484375 9.207031 L 16.050781 9.207031 L 16.460938 9.355469 C 16.46875 9.328125 16.484375 9.289062 16.484375 9.207031 L 16.050781 9.207031 L 16.460938 9.355469 L 16.167969 9.25 L 16.441406 9.398438 C 16.445312 9.390625 16.449219 9.378906 16.460938 9.355469 L 16.167969 9.25 L 16.441406 9.398438 L 16.3125 9.328125 L 16.4375 9.402344 L 16.441406 9.398438 L 16.3125 9.328125 L 16.4375 9.402344 L 16.398438 9.378906 L 16.4375 9.40625 L 16.4375 9.402344 L 16.398438 9.378906 L 16.4375 9.40625 C 16.4375 9.402344 16.460938 9.367188 16.496094 9.332031 C 16.546875 9.269531 16.617188 9.195312 16.679688 9.136719 C 16.710938 9.105469 16.742188 9.078125 16.761719 9.058594 C 16.773438 9.050781 16.785156 9.042969 16.789062 9.039062 L 16.792969 9.035156 L 16.777344 9.007812 L 16.792969 9.035156 L 16.777344 9.007812 L 16.792969 9.035156 L 16.699219 8.902344 L 16.789062 9.035156 L 16.792969 9.035156 L 16.699219 8.902344 L 16.789062 9.035156 C 16.839844 9.003906 16.917969 8.96875 17.023438 8.941406 C 17.183594 8.894531 17.402344 8.871094 17.640625 8.839844 C 17.878906 8.808594 18.136719 8.773438 18.402344 8.671875 C 18.617188 8.589844 18.800781 8.476562 18.960938 8.363281 C 19.199219 8.1875 19.394531 8.011719 19.574219 7.882812 C 19.664062 7.816406 19.75 7.765625 19.832031 7.730469 C 19.910156 7.691406 19.988281 7.667969 20.066406 7.652344 C 20.132812 7.644531 20.203125 7.636719 20.277344 7.636719 C 20.457031 7.636719 20.660156 7.667969 20.867188 7.722656 C 21.074219 7.773438 21.285156 7.84375 21.480469 7.921875 C 21.738281 8.019531 22.027344 7.890625 22.125 7.632812 C 22.222656 7.375 22.09375 7.085938 21.835938 6.984375 " fill-opacity="1" fill-rule="nonzero"/><path fill="rgb(49.01886%, 34.118652%, 15.689087%)" d="M 26.535156 11.402344 C 25.878906 11.199219 25.339844 10.871094 24.855469 10.445312 C 24.375 10.019531 23.957031 9.484375 23.570312 8.878906 C 23.449219 8.691406 23.339844 8.476562 23.226562 8.25 C 23.113281 8.019531 22.988281 7.773438 22.835938 7.527344 C 22.828125 7.515625 22.804688 7.476562 22.777344 7.433594 C 22.734375 7.363281 22.679688 7.277344 22.59375 7.1875 C 22.550781 7.140625 22.496094 7.089844 22.421875 7.039062 C 22.378906 7.015625 22.335938 6.992188 22.277344 6.972656 C 22.222656 6.953125 22.15625 6.941406 22.082031 6.941406 C 22.050781 6.941406 22.019531 6.941406 21.984375 6.949219 C 21.816406 6.976562 21.675781 7.089844 21.609375 7.246094 C 21.542969 7.402344 21.5625 7.582031 21.65625 7.722656 C 21.726562 7.828125 21.804688 7.902344 21.882812 7.964844 C 21.996094 8.054688 22.113281 8.125 22.226562 8.179688 C 22.335938 8.238281 22.441406 8.28125 22.523438 8.316406 C 22.984375 8.503906 23.46875 8.5625 23.914062 8.582031 C 23.941406 8.582031 23.96875 8.582031 24 8.582031 C 24.105469 8.582031 24.222656 8.574219 24.347656 8.558594 C 24.441406 8.542969 24.539062 8.523438 24.640625 8.492188 C 24.714844 8.464844 24.792969 8.433594 24.871094 8.394531 C 24.988281 8.328125 25.109375 8.238281 25.207031 8.097656 C 25.253906 8.03125 25.296875 7.949219 25.324219 7.867188 C 25.347656 7.78125 25.363281 7.6875 25.363281 7.597656 C 25.363281 7.550781 25.359375 7.503906 25.351562 7.457031 C 25.328125 7.28125 25.253906 7.113281 25.148438 6.984375 C 25.070312 6.886719 24.976562 6.8125 24.882812 6.757812 C 24.738281 6.675781 24.597656 6.632812 24.460938 6.609375 C 24.328125 6.585938 24.199219 6.578125 24.078125 6.578125 C 23.898438 6.578125 23.738281 6.59375 23.621094 6.609375 C 23.21875 6.664062 22.828125 6.78125 22.46875 6.9375 C 22.410156 6.964844 22.316406 7.003906 22.210938 7.0625 C 22.15625 7.09375 22.097656 7.132812 22.039062 7.183594 C 21.980469 7.234375 21.917969 7.296875 21.863281 7.386719 C 21.726562 7.613281 21.789062 7.910156 22.007812 8.0625 C 22.226562 8.210938 22.527344 8.164062 22.6875 7.949219 C 22.921875 7.628906 23.269531 7.289062 23.621094 6.988281 L 23.621094 6.984375 C 23.667969 6.949219 23.71875 6.898438 23.785156 6.828125 C 23.882812 6.730469 24 6.601562 24.105469 6.445312 C 24.15625 6.371094 24.207031 6.289062 24.25 6.191406 C 24.292969 6.09375 24.332031 5.980469 24.335938 5.828125 C 24.335938 5.734375 24.316406 5.621094 24.257812 5.511719 C 24.203125 5.40625 24.113281 5.3125 24.023438 5.257812 C 23.929688 5.199219 23.828125 5.148438 23.714844 5.109375 C 23.605469 5.074219 23.484375 5.054688 23.359375 5.054688 C 23.242188 5.054688 23.121094 5.074219 23.003906 5.113281 C 22.824219 5.167969 22.660156 5.261719 22.507812 5.386719 C 22.355469 5.515625 22.210938 5.667969 22.070312 5.855469 C 21.933594 6.042969 21.820312 6.257812 21.738281 6.484375 C 21.65625 6.714844 21.605469 6.960938 21.605469 7.214844 C 21.605469 7.359375 21.621094 7.503906 21.65625 7.648438 L 22.03125 7.554688 L 21.644531 7.554688 C 21.644531 7.570312 21.644531 7.597656 21.65625 7.648438 L 22.03125 7.554688 L 21.644531 7.554688 L 21.847656 7.554688 L 21.648438 7.53125 C 21.648438 7.53125 21.644531 7.539062 21.644531 7.554688 L 21.847656 7.554688 L 21.648438 7.53125 C 21.644531 7.546875 21.632812 7.605469 21.613281 7.683594 C 21.585938 7.804688 21.546875 7.96875 21.511719 8.167969 C 21.480469 8.363281 21.453125 8.59375 21.453125 8.847656 C 21.453125 9.199219 21.503906 9.605469 21.65625 10.023438 C 21.808594 10.445312 22.0625 10.878906 22.449219 11.292969 C 22.839844 11.710938 23.089844 12.203125 23.246094 12.710938 C 23.398438 13.21875 23.457031 13.734375 23.457031 14.175781 C 23.457031 14.441406 23.433594 14.675781 23.40625 14.859375 C 23.394531 14.949219 23.378906 15.027344 23.363281 15.085938 C 23.347656 15.144531 23.332031 15.1875 23.328125 15.191406 C 23.21875 15.445312 23.328125 15.742188 23.578125 15.855469 C 23.832031 15.964844 24.125 15.855469 24.238281 15.601562 C 24.273438 15.515625 24.300781 15.433594 24.324219 15.335938 C 24.363281 15.191406 24.394531 15.019531 24.414062 14.824219 C 24.4375 14.628906 24.449219 14.410156 24.449219 14.175781 C 24.449219 13.652344 24.386719 13.042969 24.195312 12.417969 C 24.007812 11.792969 23.6875 11.15625 23.175781 10.605469 C 22.875 10.285156 22.699219 9.976562 22.59375 9.679688 C 22.484375 9.386719 22.449219 9.105469 22.449219 8.847656 C 22.449219 8.574219 22.488281 8.328125 22.535156 8.125 C 22.554688 8.023438 22.578125 7.929688 22.597656 7.84375 C 22.609375 7.800781 22.617188 7.761719 22.625 7.714844 C 22.632812 7.671875 22.640625 7.625 22.640625 7.554688 C 22.640625 7.515625 22.636719 7.46875 22.625 7.40625 C 22.609375 7.347656 22.601562 7.285156 22.601562 7.214844 C 22.601562 7.09375 22.625 6.957031 22.671875 6.824219 C 22.722656 6.6875 22.789062 6.558594 22.867188 6.457031 C 23 6.277344 23.121094 6.167969 23.203125 6.117188 C 23.246094 6.089844 23.277344 6.074219 23.300781 6.066406 C 23.328125 6.058594 23.34375 6.054688 23.359375 6.054688 C 23.378906 6.054688 23.394531 6.058594 23.414062 6.066406 C 23.433594 6.070312 23.460938 6.082031 23.492188 6.101562 L 23.664062 5.824219 L 23.378906 5.976562 C 23.40625 6.035156 23.453125 6.082031 23.492188 6.101562 L 23.664062 5.824219 L 23.378906 5.976562 L 23.660156 5.828125 L 23.339844 5.828125 C 23.339844 5.863281 23.347656 5.917969 23.378906 5.976562 L 23.660156 5.828125 L 23.339844 5.828125 L 23.503906 5.828125 L 23.34375 5.773438 C 23.347656 5.777344 23.339844 5.789062 23.339844 5.828125 L 23.503906 5.828125 L 23.34375 5.773438 C 23.347656 5.773438 23.34375 5.785156 23.335938 5.800781 C 23.308594 5.855469 23.230469 5.960938 23.152344 6.046875 C 23.113281 6.089844 23.074219 6.128906 23.042969 6.160156 C 23.011719 6.195312 22.984375 6.21875 22.976562 6.226562 C 22.589844 6.558594 22.199219 6.933594 21.890625 7.347656 L 22.289062 7.648438 L 22.710938 7.910156 L 22.585938 7.832031 L 22.683594 7.949219 C 22.683594 7.945312 22.695312 7.9375 22.710938 7.910156 L 22.585938 7.832031 L 22.683594 7.949219 L 22.699219 7.9375 C 22.710938 7.925781 22.738281 7.914062 22.765625 7.898438 C 22.796875 7.886719 22.832031 7.871094 22.867188 7.855469 C 23.148438 7.730469 23.453125 7.640625 23.75 7.601562 C 23.84375 7.589844 23.964844 7.578125 24.078125 7.578125 C 24.144531 7.578125 24.210938 7.582031 24.261719 7.589844 C 24.300781 7.597656 24.332031 7.605469 24.355469 7.613281 C 24.371094 7.617188 24.378906 7.625 24.382812 7.625 L 24.386719 7.628906 L 24.421875 7.582031 L 24.375 7.613281 L 24.386719 7.628906 L 24.421875 7.582031 L 24.375 7.613281 L 24.425781 7.578125 L 24.367188 7.601562 L 24.375 7.613281 L 24.425781 7.578125 L 24.367188 7.601562 L 24.382812 7.59375 L 24.367188 7.597656 L 24.367188 7.601562 L 24.382812 7.59375 L 24.367188 7.597656 L 24.367188 7.601562 L 24.40625 7.597656 L 24.367188 7.597656 L 24.367188 7.601562 L 24.40625 7.597656 L 24.367188 7.597656 L 24.492188 7.597656 L 24.378906 7.554688 C 24.371094 7.574219 24.367188 7.59375 24.367188 7.597656 L 24.492188 7.597656 L 24.378906 7.554688 L 24.511719 7.605469 L 24.398438 7.515625 C 24.390625 7.523438 24.382812 7.539062 24.378906 7.554688 L 24.511719 7.605469 L 24.398438 7.515625 L 24.449219 7.558594 L 24.410156 7.503906 L 24.398438 7.515625 L 24.449219 7.558594 L 24.410156 7.503906 C 24.410156 7.503906 24.394531 7.515625 24.371094 7.523438 C 24.332031 7.539062 24.269531 7.558594 24.203125 7.566406 C 24.132812 7.578125 24.0625 7.582031 24 7.582031 C 23.984375 7.582031 23.964844 7.582031 23.949219 7.582031 L 23.953125 7.582031 C 23.574219 7.566406 23.195312 7.511719 22.894531 7.386719 C 22.808594 7.351562 22.695312 7.300781 22.609375 7.25 C 22.5625 7.226562 22.527344 7.199219 22.503906 7.179688 C 22.492188 7.171875 22.480469 7.164062 22.476562 7.160156 L 22.476562 7.15625 L 22.429688 7.195312 L 22.480469 7.160156 L 22.476562 7.15625 L 22.429688 7.195312 L 22.480469 7.160156 L 22.066406 7.441406 L 22.148438 7.9375 L 22.082031 7.542969 L 22.082031 7.941406 C 22.105469 7.941406 22.128906 7.941406 22.148438 7.9375 L 22.082031 7.542969 L 22.082031 7.941406 L 22.082031 7.566406 L 21.933594 7.910156 C 21.96875 7.925781 22.019531 7.941406 22.082031 7.941406 L 22.082031 7.566406 L 21.933594 7.910156 L 22.019531 7.714844 L 21.867188 7.867188 C 21.867188 7.867188 21.878906 7.886719 21.933594 7.910156 L 22.019531 7.714844 L 21.867188 7.867188 C 21.867188 7.867188 21.894531 7.898438 21.917969 7.9375 C 21.929688 7.957031 21.941406 7.976562 21.953125 8 C 21.96875 8.019531 21.980469 8.042969 21.996094 8.066406 C 22.117188 8.253906 22.222656 8.46875 22.339844 8.699219 C 22.453125 8.929688 22.578125 9.175781 22.734375 9.421875 C 23.152344 10.078125 23.625 10.6875 24.199219 11.195312 C 24.769531 11.707031 25.445312 12.113281 26.246094 12.359375 C 26.507812 12.4375 26.789062 12.289062 26.867188 12.023438 C 26.949219 11.761719 26.800781 11.480469 26.535156 11.402344 " fill-opacity="1" fill-rule="nonzero"/><path fill="rgb(97.648621%, 66.268921%, 47.44873%)" d="M 24.796875 9.679688 C 24.335938 8.867188 23.308594 8.585938 22.5 9.046875 L 20.261719 10.332031 C 19.457031 10.796875 19.171875 11.832031 19.632812 12.644531 C 20.09375 13.457031 21.125 13.738281 21.929688 13.277344 L 24.167969 11.992188 C 24.976562 11.53125 25.257812 10.496094 24.796875 9.679688 " fill-opacity="1" fill-rule="nonzero"/><path fill="rgb(97.648621%, 66.268921%, 47.44873%)" d="M 22.234375 11.222656 C 21.816406 10.386719 20.804688 10.050781 19.972656 10.472656 L 17.140625 11.917969 C 16.3125 12.339844 15.976562 13.359375 16.394531 14.195312 C 16.816406 15.03125 17.828125 15.367188 18.65625 14.945312 L 21.488281 13.5 C 22.320312 13.078125 22.652344 12.058594 22.234375 11.222656 " fill-opacity="1" fill-rule="nonzero"/><path fill="rgb(97.24884%, 70.979309%, 54.119873%)" d="M 24.492188 10.601562 C 24.78125 11.117188 24.636719 11.179688 23.980469 11.535156 C 23.679688 11.699219 23.320312 11.898438 23.015625 11.808594 C 22.894531 11.753906 22.648438 11.652344 22.503906 11.453125 C 22.328125 11.210938 22.167969 10.902344 22.195312 10.570312 C 22.238281 10.070312 22.695312 9.871094 23.078125 9.679688 C 23.425781 9.507812 23.683594 9.273438 23.863281 9.453125 C 23.957031 9.550781 24.367188 10.378906 24.492188 10.601562 " fill-opacity="1" fill-rule="nonzero"/><path fill="rgb(94.898987%, 61.178589%, 42.349243%)" d="M 21.21875 12.890625 C 21.21875 12.890625 21.125 12.796875 21.011719 12.640625 C 20.953125 12.5625 20.890625 12.472656 20.824219 12.371094 C 20.757812 12.269531 20.691406 12.160156 20.628906 12.050781 C 20.597656 11.996094 20.566406 11.9375 20.539062 11.882812 C 20.507812 11.828125 20.480469 11.769531 20.453125 11.71875 C 20.398438 11.609375 20.355469 11.507812 20.320312 11.417969 C 20.242188 11.238281 20.210938 11.113281 20.210938 11.113281 C 20.210938 11.113281 20.300781 11.207031 20.417969 11.363281 C 20.476562 11.4375 20.539062 11.53125 20.605469 11.632812 C 20.636719 11.683594 20.671875 11.734375 20.703125 11.789062 C 20.734375 11.84375 20.765625 11.898438 20.800781 11.953125 C 20.859375 12.066406 20.921875 12.175781 20.972656 12.285156 C 21.027344 12.394531 21.074219 12.496094 21.109375 12.585938 C 21.183594 12.761719 21.21875 12.890625 21.21875 12.890625 " fill-opacity="1" fill-rule="nonzero"/><path fill="rgb(94.898987%, 61.178589%, 42.349243%)" d="M 20.777344 13.378906 C 20.777344 13.378906 20.671875 13.265625 20.539062 13.074219 C 20.46875 12.980469 20.394531 12.871094 20.316406 12.75 C 20.238281 12.628906 20.164062 12.496094 20.085938 12.363281 C 20.046875 12.292969 20.011719 12.226562 19.976562 12.160156 C 19.9375 12.09375 19.90625 12.027344 19.875 11.964844 C 19.808594 11.835938 19.75 11.714844 19.707031 11.605469 C 19.613281 11.394531 19.566406 11.246094 19.566406 11.246094 C 19.566406 11.246094 19.671875 11.363281 19.804688 11.550781 C 19.871094 11.644531 19.945312 11.757812 20.023438 11.878906 C 20.0625 11.9375 20.101562 12 20.140625 12.066406 C 20.179688 12.132812 20.21875 12.199219 20.257812 12.265625 C 20.328125 12.398438 20.40625 12.53125 20.46875 12.660156 C 20.53125 12.789062 20.589844 12.914062 20.636719 13.019531 C 20.730469 13.230469 20.777344 13.378906 20.777344 13.378906 " fill-opacity="1" fill-rule="nonzero"/><path fill="rgb(94.898987%, 61.178589%, 42.349243%)" d="M 20.785156 12.808594 C 20.785156 12.808594 20.710938 12.746094 20.625 12.636719 C 20.535156 12.53125 20.425781 12.378906 20.335938 12.21875 C 20.246094 12.058594 20.171875 11.886719 20.125 11.753906 C 20.078125 11.625 20.058594 11.527344 20.058594 11.527344 C 20.058594 11.527344 20.132812 11.589844 20.222656 11.699219 C 20.3125 11.808594 20.417969 11.957031 20.507812 12.121094 C 20.597656 12.28125 20.675781 12.449219 20.722656 12.582031 C 20.769531 12.714844 20.785156 12.808594 20.785156 12.808594 " fill-opacity="1" fill-rule="nonzero"/><path fill="rgb(97.648621%, 66.268921%, 47.44873%)" d="M 19.578125 10.671875 C 22.761719 8.933594 21.6875 13.1875 20.804688 13.851562 C 19.378906 14.917969 18.210938 15.398438 16.253906 17.167969 C 14.300781 18.941406 12.878906 17.875 11.550781 18.894531 L 7.882812 20.917969 L 4.636719 16.488281 C 4.636719 16.488281 7.289062 14.964844 7.824219 13.910156 C 8.359375 12.855469 11.210938 8.980469 14.027344 5.425781 C 15.054688 4.128906 16.023438 7.605469 16.023438 7.605469 C 16.023438 7.605469 15.480469 12.914062 19.578125 10.671875 " fill-opacity="1" fill-rule="nonzero"/><path fill="rgb(95.689392%, 95.689392%, 95.689392%)" d="M 10.628906 20.453125 L 12.25 19.253906 L 7.753906 13.082031 L 6.132812 14.277344 L 10.628906 20.453125 " fill-opacity="1" fill-rule="nonzero"/><path fill="rgb(18.429565%, 23.919678%, 24.708557%)" d="M 0.0390625 28.375 L 10.855469 20.761719 L 5.90625 13.96875 L 0.0390625 18.097656 L 0.0390625 28.375 " fill-opacity="1" fill-rule="nonzero"/></svg>