<svg width="20" height="12" viewBox="0 0 20 12" fill="none" xmlns="http://www.w3.org/2000/svg">
<path d="M13.1306 0.879999C13.2119 0.798566 13.3084 0.733954 13.4146 0.689863C13.5209 0.645752 13.6349 0.623047 13.75 0.623047C13.8651 0.623047 13.9791 0.645752 14.0854 0.689863C14.1916 0.733967 14.2882 0.798602 14.3695 0.880068L14.3694 0.879999L14.281 0.968384L14.3695 0.880111L13.1306 0.879999ZM13.1306 0.879999C13.0492 0.961256 12.9846 1.05777 12.9405 1.16403C12.8964 1.27033 12.8737 1.38429 12.8737 1.49939C12.8737 1.61448 12.8964 1.72844 12.9405 1.83475C12.9846 1.94102 13.0492 2.03755 13.1307 2.11882C13.1307 2.11884 13.1307 2.11886 13.1307 2.11889L17.0127 5.99939L13.1306 9.87998L13.1306 9.88C12.9663 10.0443 12.8741 10.2671 12.8741 10.4994C12.8741 10.7317 12.9663 10.9545 13.1306 11.1188C13.2949 11.283 13.5177 11.3753 13.75 11.3753C13.9823 11.3753 14.2051 11.283 14.3694 11.1188L18.8693 6.61889L13.1306 0.879999ZM18.8693 5.37989L18.781 5.46839L18.8694 5.38C18.9508 5.46125 19.0154 5.55777 19.0595 5.66403C19.1036 5.77033 19.1263 5.88429 19.1263 5.99939C19.1263 6.11448 19.1036 6.22844 19.0595 6.33474C19.0154 6.441 18.9508 6.53752 18.8694 6.61877L18.8693 5.37989Z" fill="white" stroke="white" stroke-width="0.25"/>
<path d="M1.13128 5.38128C0.967187 5.54538 0.875 5.76794 0.875 6C0.875 6.23206 0.967187 6.45462 1.13128 6.61872C1.29538 6.78281 1.51794 6.875 1.75 6.875H17.5C17.7321 6.875 17.9546 6.78281 18.1187 6.61872C18.2828 6.45462 18.375 6.23206 18.375 6C18.375 5.76794 18.2828 5.54538 18.1187 5.38128C17.9546 5.21719 17.7321 5.125 17.5 5.125H1.75C1.51794 5.125 1.29538 5.21719 1.13128 5.38128Z" fill="white" stroke="white" stroke-width="0.25"/>
</svg>
