<svg width="18" height="18" viewBox="0 0 18 18" fill="none" xmlns="http://www.w3.org/2000/svg">
<path fill-rule="evenodd" clip-rule="evenodd" d="M9 16.875C11.0886 16.875 13.0916 16.0453 14.5685 14.5685C16.0453 13.0916 16.875 11.0886 16.875 9C16.875 6.91142 16.0453 4.90838 14.5685 3.43153C13.0916 1.95468 11.0886 1.125 9 1.125C6.91142 1.125 4.90838 1.95468 3.43153 3.43153C1.95468 4.90838 1.125 6.91142 1.125 9C1.125 11.0886 1.95468 13.0916 3.43153 14.5685C4.90838 16.0453 6.91142 16.875 9 16.875ZM9 18C11.3869 18 13.6761 17.0518 15.364 15.364C17.0518 13.6761 18 11.3869 18 9C18 6.61305 17.0518 4.32387 15.364 2.63604C13.6761 0.948212 11.3869 0 9 0C6.61305 0 4.32387 0.948212 2.63604 2.63604C0.948212 4.32387 0 6.61305 0 9C0 11.3869 0.948212 13.6761 2.63604 15.364C4.32387 17.0518 6.61305 18 9 18Z" fill="#FF9933"/>
<path fill-rule="evenodd" clip-rule="evenodd" d="M12.3414 5.59022C12.4988 5.43415 12.7114 5.34632 12.933 5.34571C13.1547 5.34509 13.3677 5.43176 13.5261 5.58695C13.6844 5.74215 13.7752 5.95342 13.779 6.17507C13.7828 6.39673 13.6992 6.61097 13.5462 6.77147L9.05524 12.3852C8.97806 12.4684 8.8849 12.5351 8.78134 12.5814C8.67778 12.6277 8.56595 12.6526 8.45252 12.6547C8.3391 12.6568 8.22642 12.6361 8.12122 12.5936C8.01601 12.5512 7.92045 12.4879 7.84024 12.4077L4.86462 9.43097C4.78172 9.35373 4.71523 9.26058 4.66911 9.15708C4.623 9.05358 4.5982 8.94185 4.5962 8.82856C4.5942 8.71527 4.61504 8.60274 4.65748 8.49767C4.69991 8.39261 4.76308 8.29718 4.8432 8.21705C4.92332 8.13693 5.01876 8.07377 5.12382 8.03133C5.22888 7.9889 5.34141 7.96806 5.4547 7.97006C5.568 7.97206 5.67972 7.99685 5.78322 8.04297C5.88672 8.08908 5.97987 8.15557 6.05712 8.23847L8.41287 10.5931L12.32 5.61497C12.327 5.60626 12.3345 5.59799 12.3425 5.59022H12.3414Z" fill="#FF9933"/>
</svg>
