<svg width="54" height="31" viewBox="0 0 54 31" fill="none" xmlns="http://www.w3.org/2000/svg">
<path d="M36.6778 0H29.43C28.755 0 28.1053 0.234375 27.6075 0.65625L19.3134 7.6875C19.305 7.69531 19.2966 7.71094 19.2881 7.71875C17.8875 8.9375 17.9128 10.8828 19.1109 12.0937C20.1825 13.1797 22.4353 13.4687 23.8444 12.3047C23.8528 12.2969 23.8697 12.2969 23.8781 12.2891L30.6197 6.57031C31.1681 6.10938 32.0288 6.14062 32.5266 6.64844C33.0328 7.15625 32.9906 7.94531 32.4422 8.41406L30.24 10.2812L42.525 19.5156C42.7697 19.7031 42.9891 19.9062 43.1916 20.1172V5L38.5847 0.734375C38.0869 0.265625 37.395 0 36.6778 0ZM45.9 5.01562V22.5078C45.9 23.8906 47.1066 25.0078 48.6 25.0078H54V5.01562H45.9ZM49.95 22.5078C49.2075 22.5078 48.6 21.9453 48.6 21.2578C48.6 20.5703 49.2075 20.0078 49.95 20.0078C50.6925 20.0078 51.3 20.5703 51.3 21.2578C51.3 21.9453 50.6925 22.5078 49.95 22.5078ZM0 25H5.4C6.89344 25 8.1 23.8828 8.1 22.5V5.01562H0V25ZM4.05 20.0078C4.7925 20.0078 5.4 20.5703 5.4 21.2578C5.4 21.9453 4.7925 22.5078 4.05 22.5078C3.3075 22.5078 2.7 21.9453 2.7 21.2578C2.7 20.5625 3.3075 20.0078 4.05 20.0078ZM40.8291 21.4609L28.2319 11.9922L25.7006 14.1406C23.1947 16.2578 19.3556 16.0547 17.1197 13.7969C14.85 11.5 15.0272 7.94531 17.4909 5.85156L24.3928 0H17.3222C16.605 0 15.9216 0.265625 15.4153 0.734375L10.8 5V22.4922H12.3441L19.98 28.8906C22.2919 30.6328 25.6922 30.3047 27.5737 28.1641L27.5906 28.1484L29.1009 29.3594C30.4425 30.375 32.4253 30.1797 33.5138 28.9375L36.1631 25.9219L36.6188 26.2656C37.7747 27.1328 39.4791 26.9766 40.4156 25.8984L41.2172 24.9844C42.1622 23.9062 41.985 22.3359 40.8291 21.4609Z" fill="white"/>
</svg>
