<svg width="15" height="14" viewBox="0 0 15 14" fill="none" xmlns="http://www.w3.org/2000/svg">
<path d="M7.02447 1.08156C7.17415 0.620905 7.82585 0.620901 7.97553 1.08156L8.93284 4.02786C9.13365 4.6459 9.70959 5.06434 10.3594 5.06434H13.4574C13.9417 5.06434 14.1431 5.68414 13.7512 5.96885L11.245 7.78976C10.7192 8.17173 10.4993 8.84878 10.7001 9.46681L11.6574 12.4131C11.8071 12.8738 11.2798 13.2568 10.888 12.9721L8.38168 11.1512C7.85595 10.7693 7.14405 10.7693 6.61832 11.1512L4.11204 12.9721C3.72019 13.2568 3.19295 12.8738 3.34262 12.4131L4.29994 9.46681C4.50075 8.84878 4.28076 8.17173 3.75503 7.78976L1.24875 5.96885C0.856898 5.68415 1.05828 5.06434 1.54265 5.06434H4.64057C5.29041 5.06434 5.86635 4.6459 6.06716 4.02786L7.02447 1.08156Z" stroke="#FF9933"/>
</svg>
