<svg width="18" height="17" viewBox="0 0 18 17" fill="none" xmlns="http://www.w3.org/2000/svg">
<path d="M1.00024 5.00019H14.0002L12.4002 6.20019C12.2952 6.27898 12.2067 6.3777 12.1398 6.49069C12.0729 6.60369 12.0289 6.72877 12.0103 6.85877C11.9917 6.98877 11.9989 7.12116 12.0315 7.24837C12.0641 7.37558 12.1215 7.49513 12.2002 7.60019C12.2934 7.72439 12.4142 7.82519 12.553 7.89462C12.6919 7.96404 12.845 8.00019 13.0002 8.00019C13.2166 8.00019 13.4271 7.93001 13.6002 7.80019L17.6002 4.80019C17.7226 4.70686 17.8217 4.58658 17.8899 4.44869C17.9581 4.3108 17.9936 4.15903 17.9936 4.00519C17.9936 3.85134 17.9581 3.69957 17.8899 3.56169C17.8217 3.4238 17.7226 3.30351 17.6002 3.21019L13.7402 0.210189C13.5307 0.0470809 13.265 -0.0261149 13.0015 0.00670401C12.738 0.0395229 12.4984 0.175668 12.3352 0.385189C12.1721 0.59471 12.0989 0.860444 12.1318 1.12393C12.1646 1.38742 12.3007 1.62708 12.5102 1.79019L14.0802 3.00019H1.00024C0.735028 3.00019 0.480674 3.10555 0.293137 3.29308C0.105601 3.48062 0.000244141 3.73497 0.000244141 4.00019C0.000244141 4.26541 0.105601 4.51976 0.293137 4.7073C0.480674 4.89483 0.735028 5.00019 1.00024 5.00019ZM17.0002 12.0002H4.00024L5.60024 10.8002C5.81242 10.6411 5.95269 10.4042 5.99019 10.1416C6.0277 9.87906 5.95937 9.61236 5.80024 9.40019C5.64112 9.18801 5.40422 9.04775 5.14167 9.01024C4.87912 8.97273 4.61242 9.04106 4.40024 9.20019L0.400244 12.2002C0.277937 12.2935 0.178812 12.4138 0.110581 12.5517C0.04235 12.6896 0.00685358 12.8413 0.00685358 12.9952C0.00685358 13.149 0.04235 13.3008 0.110581 13.4387C0.178812 13.5766 0.277937 13.6969 0.400244 13.7902L4.26024 16.7902C4.43479 16.9257 4.6493 16.9995 4.87024 17.0002C5.02296 16.9998 5.17357 16.9645 5.31051 16.8969C5.44745 16.8293 5.56709 16.7312 5.66024 16.6102C5.82264 16.4017 5.89591 16.1374 5.86406 15.8751C5.8322 15.6128 5.69781 15.3737 5.49024 15.2102L3.92024 14.0002H17.0002C17.2655 14.0002 17.5198 13.8948 17.7074 13.7073C17.8949 13.5198 18.0002 13.2654 18.0002 13.0002C18.0002 12.735 17.8949 12.4806 17.7074 12.2931C17.5198 12.1055 17.2655 12.0002 17.0002 12.0002Z" fill="#FF9933"/>
</svg>
