<svg width="29" height="24" viewBox="0 0 29 24" fill="none" xmlns="http://www.w3.org/2000/svg">
<path d="M11.1241 0H17.1616L18.6106 1.93939L14.0221 6.30303L9.67507 1.93939L11.1241 0Z" fill="#28A5FF"/>
<path d="M10.1581 7.51515L8.46756 6.06061C2.96131 6.35152 0.538239 5.33333 0.0149855 4.9697C-0.178216 5.64849 1.5445 8.20202 2.43 9.21212H7.26005C7.45325 10.0848 6.37454 11.4343 5.81103 12L8.46756 14.303C9.72337 12.8485 10.1178 9.17172 10.1581 7.51515Z" fill="#28A5FF"/>
<path d="M14.2636 9.69697L12.8146 8.24242C12.5731 17.9394 11.5266 18.7475 10.6411 22.5455L11.6071 24H16.5579L17.6446 22.5455C15.616 17.503 15.5114 10.9091 15.7126 8.24242L14.2636 9.69697Z" fill="#28A5FF"/>
<path d="M18.1276 7.51515L19.8182 6.06061C25.3244 6.35152 27.7475 5.33333 28.2707 4.9697C28.4639 5.64849 26.7412 8.20202 25.8557 9.21212H21.0257C20.8325 10.0848 21.9112 11.4343 22.4747 12L19.8182 14.303C18.5623 12.8485 18.1679 9.17172 18.1276 7.51515Z" fill="#28A5FF"/>
</svg>
