<svg width="22" height="24" viewBox="0 0 22 24" fill="none" xmlns="http://www.w3.org/2000/svg">
<path d="M7.729 5.70175C8.80375 7.66499 9.84016 9.82763 10.6471 12.0007C11.485 14.257 12.0674 16.5034 12.198 18.537C12.3119 20.3101 12.0805 21.8881 11.4077 23.1706C10.3978 22.083 9.05879 20.6627 7.87225 19.4503C7.18557 18.7486 6.54551 18.112 6.04829 17.649C5.80072 17.4185 5.58128 17.2242 5.40557 17.085C5.31869 17.0161 5.23253 16.9527 5.15289 16.9041C5.13672 16.8942 5.11924 16.884 5.10069 16.8738C5.06786 16.7218 5.03725 16.4902 4.9992 16.168C4.99109 16.0994 4.98275 16.0275 4.97406 15.9527C4.90088 15.3228 4.80321 14.4821 4.61694 13.5548C4.32132 12.0831 3.79455 10.348 2.74931 8.81544C3.79851 9.63525 4.93414 10.6428 5.83973 11.6804C6.82621 12.8107 7.46283 13.8909 7.5285 14.7577L8.52246 14.7877C8.76129 13.0419 8.77018 9.53938 7.729 5.70175ZM14.8329 6.21938C15.0102 5.94306 15.1941 5.66092 15.3825 5.37578C15.0229 6.53856 14.8059 7.60959 14.6759 8.54451C14.5142 9.70745 14.4873 10.6584 14.4873 11.3101C14.4873 11.4726 14.4889 11.6163 14.4906 11.7386C14.4909 11.7594 14.4912 11.7795 14.4914 11.7988C14.4925 11.8777 14.4934 11.9445 14.4937 12.0014C14.4896 12.0067 14.4859 12.0117 14.4826 12.0162C14.4198 12.1015 14.3694 12.2048 14.3308 12.2923C14.249 12.4778 14.1623 12.7286 14.0796 12.9912C14.0723 13.0145 14.065 13.0379 14.0576 13.0615L12.9103 9.85812L12.8916 9.80583C12.8962 9.7791 12.9046 9.74123 12.9193 9.69057C12.975 9.49856 13.0914 9.2224 13.2699 8.86796C13.6239 8.16528 14.1793 7.23805 14.8329 6.21938ZM17.7081 17.085L15.5692 19.2567C15.7604 17.6215 16.1998 15.5616 17.0089 13.6218C17.7376 11.8745 18.7481 10.2661 20.1119 9.13711C19.7467 9.71304 19.3811 10.3654 19.0492 11.0764C18.2475 12.7935 17.6281 14.8829 17.7081 17.085Z" fill="#28A5FF" stroke="#28A5FF"/>
</svg>
