<svg width="45" height="40" viewBox="0 0 45 40" fill="none" xmlns="http://www.w3.org/2000/svg">
<path d="M18.8337 7.49128L14.925 3.92383V6.3257C11.1069 6.44424 7.53805 7.85403 4.82655 10.3276C1.9912 12.9142 0.429688 16.3557 0.429688 20.0183H3.00446C3.00446 13.9186 8.30516 8.92785 14.925 8.67621V11.0579L18.8337 7.49128Z" fill="white"/>
<path d="M41.798 20.0195C41.798 26.1192 36.4973 31.1099 29.8774 31.3616V28.9799L25.9688 32.5465L29.8774 36.1139V33.7121C33.6955 33.5935 37.2644 32.1837 39.9759 29.7101C42.8113 27.1237 44.3727 23.6821 44.3727 20.0195H41.798Z" fill="white"/>
<path d="M12.102 24.3088L0.429688 22.5488V38.2398L12.102 39.9998L23.7743 38.2398V22.5488L12.102 24.3088ZM13.3894 37.4249L12.102 37.619L10.8146 37.4249V26.4955L12.102 26.6896L13.3894 26.4955V37.4249Z" fill="white"/>
<path d="M32.7006 1.76L21.0283 0V15.6909L32.7006 17.4509L44.373 15.6909V0L32.7006 1.76ZM33.988 14.8761L32.7006 15.0702L31.4133 14.8761V3.94663L32.7006 4.14073L33.988 3.94663V14.8761Z" fill="white"/>
</svg>
